<?xml version="1.0" encoding="utf-8"?>
<!-- Generator: Adobe Illustrator 17.0.0, SVG Export Plug-In . SVG Version: 6.00 Build 0)  -->
<!DOCTYPE svg PUBLIC "-//W3C//DTD SVG 1.1//EN" "http://www.w3.org/Graphics/SVG/1.1/DTD/svg11.dtd">
<svg version="1.1" id="Created_by_Vectorportal.com"
	 xmlns="http://www.w3.org/2000/svg" xmlns:xlink="http://www.w3.org/1999/xlink" x="0px" y="0px" width="200px" height="190.851px"
	 viewBox="0 0 200 190.851" style="enable-background:new 0 0 200 190.851;" xml:space="preserve">
<style type="text/css">
	.st0{fill:#939598;}
</style>
<path class="st0" d="M156.708,63.178c-0.558,10.737-2.928,19.662,7.112,17.849c-10.877,5.857-23.39-16.965-18.546-22.823
	l-6.414-5.764C147.086,53.138,157.266,52.441,156.708,63.178z M104.247,6.848c-17.46,0-33.738,5.055-47.457,13.776
	c12.107-6.122,25.957-9.599,40.674-9.599c47.429,0,85.878,36.086,85.878,80.6s-38.449,80.6-85.878,80.6
	c-30.636,0-57.521-15.059-72.722-37.718c14.44,29.319,44.614,49.496,79.505,49.496c48.92,0,88.578-39.658,88.578-88.578
	C192.825,46.505,153.167,6.848,104.247,6.848z M7.175,89.301c0,0,38.673-0.186,67.399-23.334
	c-8.367-2.51-31.236,6.275-39.603,10.179C47.663,61.711,65.16,52.898,83.519,48.955c-6.232-4.917-11.923-10.999-11.748-16.734
	c13.396,9.476,29.022,12.948,39.877,14.397c3.83,0.171,7.609,0.543,11.301,1.104c1.21,0.104,1.942,0.197,2.089,0.337
	c0,0-2.028,10.936,2.861,16.096c-3.821-0.14-11.49-11.156-11.49-11.156c-76.974,32.421-63.954,86.103-63.954,86.103
	c11.638-3.669,21.243-4.822,29.63-3.771c-22.272-32.708,3.854-65.181,33.58-75.034c-13.388,11.217-15.859,23.404-13.36,35.609
	c0.922-8.884,7.549-21.737,18.357-31.425c-8.181,13.015-20.057,35.605-6.484,32.258c13.573-3.346,20.07-5.11,22.73-0.651
	c-5.305-1.954-8.216-0.747-11.075,1.451l5.987,18.049c0.169-0.015,0.345-0.025,0.533-0.025c4.741,0,10.133,0.465,13.479,20.754
	c0.837-8.367,7.53-11.504,7.53-11.504c-3.674-7.238-7.19-25.459-7.112-32.909c0.003-0.245,0.013-0.512,0.03-0.79
	c-1.898-0.257-4.644-2.13-7.055-4.67l4.144,28.608l-10.296-39.254l2.554,4.419c4.047,2.198,7.254,1.603,9.524,1.034l-7.169-21.986
	l-7.07,4.192c-6.787-5.299-0.465-18.965,2.975-20.917c-0.372,4.648,1.673,12.643,7.53,14.689l10.133,31.515
	c0,0-2.867,2.909-2.898,3.697c-0.14,3.626,3.269,25.675,5.872,27.723c2.603,2.048,2.977,3.492,2.977,3.492
	s-7.996,9.525-6.695,13.058c1.301,3.532-7.252,3.346-9.39,0.929c-0.545-0.617-0.743-2.295-0.896-4.406
	c-1.206,0.012-3.272,0.029-4.403,0.013c-0.109-1.638-0.607-10.987-1.177-14.266c-0.641-0.049-1.359,0.025-2.169,0.252
	c-5.392,1.859,1.766,10.644,0.929,15.478c-1.919,0.49-9.743-2.148-10.877-4.392c-1.447-2.866,1.066-6.356,1.952-8.39
	c0.264-0.176-8.07-10.831-11.474-16.375c-3.706,1.141-6.427,0.872-8.25-0.425c8.701,22.839,29.663,44.891,23.443,59.842
	c-86.55,10.319-108.582-49.922-112.487-60.799c1.494,0.498,11.487-1.771,20.213-5.513C42.154,96.118,18.052,97.853,7.175,89.301z
	 M137.282,119.95c0.201,3.553,0.918,11.184,0.918,11.184l2.185,0.104C140.107,127.04,139.676,122.032,137.282,119.95z
	 M121.619,101.045c-1.209,0.965-2.559,1.925-4.157,2.779c1.427,2.58,9.484,17.056,10.5,16.802c0.855-0.214,0.197-3.07,1.972-4.395
	L121.619,101.045z M107.855,147.31l-0.38-0.021c3.058,2.632,6.056,5.654,9.072,9.039c11.428-7.618-38.789-54.575-12.312-88.534
	C86.573,80.054,65,102.353,107.855,147.31z M58.12,146.148c12.308,6.456,27.392,11.348,47.133,13.619
	c-2.132-5.418-6.239-10.378-13.168-13.313l-0.498-0.027c-0.104-0.1-0.205-0.201-0.309-0.301
	C83.738,143.196,73.02,142.588,58.12,146.148z M78.851,57.228c8.98,0,14.13,1.022,14.13,1.022l2.548-1.234l0,0l9.445-4.576
	c-0.537-0.051-1.072-0.089-1.604-0.121c-0.07-0.004-0.141-0.009-0.211-0.013c-0.505-0.027-1.007-0.045-1.508-0.055
	c-0.091-0.002-0.182-0.004-0.273-0.005c-0.494-0.007-0.987-0.006-1.477,0.003c-0.085,0.002-0.169,0.004-0.254,0.006
	c-0.502,0.012-1.002,0.031-1.5,0.059c-0.049,0.003-0.097,0.007-0.145,0.01c-0.493,0.03-0.983,0.067-1.471,0.112
	c-0.047,0.004-0.093,0.008-0.14,0.012c-0.493,0.047-0.983,0.103-1.472,0.165c-0.085,0.011-0.169,0.021-0.253,0.032
	c-0.474,0.063-0.946,0.133-1.416,0.209c-0.091,0.015-0.182,0.03-0.273,0.045c-0.473,0.08-0.943,0.164-1.413,0.257
	c-0.073,0.015-0.146,0.03-0.219,0.045c-0.488,0.099-0.976,0.203-1.46,0.315c-0.004,0.001-0.007,0.002-0.011,0.002l0,0
	C86.107,54.393,82.444,55.673,78.851,57.228z M57.004,92.392c2.745-4.441,6.785-9.394,10.319-13.038
	c-10.109,4.747-18.137,9.381-32.909,10.877C44.826,91.369,57.004,92.392,57.004,92.392z M25.846,109.681
	c0,0,8.568,14.388,16.098,22.662c0,0-1.747-15.995,10.06-30.498C49.222,103.49,35.336,109.51,25.846,109.681z"/>
</svg>
