<?xml version="1.0" encoding="utf-8"?>
<!-- Generator: Adobe Illustrator 17.0.0, SVG Export Plug-In . SVG Version: 6.00 Build 0)  -->
<!DOCTYPE svg PUBLIC "-//W3C//DTD SVG 1.1//EN" "http://www.w3.org/Graphics/SVG/1.1/DTD/svg11.dtd">
<svg version="1.1" id="Layer_1" xmlns="http://www.w3.org/2000/svg" xmlns:xlink="http://www.w3.org/1999/xlink" x="0px" y="0px"
	 width="150px" height="150px" viewBox="0 0 150 150" enable-background="new 0 0 150 150" xml:space="preserve">
<g>
	<path fill="#FFFFFF" d="M16.562,112.594h5.431c3.786,0,5.966,1.883,5.966,5.689c0,3.904-3.131,7.552-8.087,7.552H14.46l0.1-0.495
		h1.189l2.557-12.25h-1.844L16.562,112.594z M18.206,125.339h1.586c2.339,0,3.311-0.535,4.262-2.617
		c0.951-2.081,1.388-4.678,1.388-6.322c0-2.756-1.229-3.311-3.707-3.311h-0.951L18.206,125.339z"/>
	<path fill="#FFFFFF" d="M36.518,123.832c-0.932,1.625-2.22,2.299-4.063,2.299c-1.705,0-3.271-1.467-3.271-3.211
		c0-2.537,2.319-5.054,4.916-5.054c1.327,0,2.715,0.653,2.715,2.18c0,1.011-0.674,1.586-1.486,2.042
		c-0.535,0.297-1.13,0.416-2.339,0.416h-1.467c-0.218,0.535-0.277,1.11-0.277,1.725c0,0.932,0.773,1.407,1.644,1.407
		c1.408,0,2.518-0.832,3.212-2.002L36.518,123.832z M32.354,122.009c1.606,0,2.716-0.595,2.716-2.359
		c0-0.713-0.317-1.288-1.07-1.288c-1.725,0-1.942,2.438-2.379,3.647H32.354z"/>
	<path fill="#FFFFFF" d="M40.816,126.131c-1.149,0-2.656-0.416-2.656-1.843c0-0.535,0.456-0.932,0.951-0.932
		c0.535,0,0.872,0.396,0.872,0.932c0,0.337-0.376,0.654-0.376,0.832c0,0.417,0.911,0.575,1.209,0.516
		c0.793,0,1.804-0.277,1.804-1.228c0-1.547-3.35-2.161-3.35-4.064c0-1.586,1.427-2.477,2.854-2.477c1.249,0,2.28,0.634,2.28,1.328
		c0,0.614-0.298,0.971-0.912,0.971c-0.377,0-0.753-0.337-0.753-0.714c0-0.297,0.198-0.455,0.258-0.733
		c-0.021-0.356-0.615-0.356-0.873-0.356c-0.555,0-1.387,0.238-1.387,0.932c0,1.348,3.33,1.705,3.33,4.202
		C44.067,125.239,42.362,126.131,40.816,126.131z"/>
	<path fill="#FFFFFF" d="M46.265,118.48l0.14-0.496h1.823c0.317,0,0.614-0.02,0.911-0.039c0.298-0.02,0.615-0.04,0.912-0.04
		l-1.328,5.709c-0.099,0.416-0.277,0.991-0.277,1.209c0,0.297,0.158,0.436,0.437,0.436c0.852,0,1.525-1.565,1.902-2.2l0.437,0.159
		c-0.377,0.772-0.793,1.506-1.368,2.141c-0.476,0.516-1.229,0.853-1.923,0.772c-0.792-0.099-1.427-0.455-1.427-1.367
		c0-0.179,0.04-0.674,0.158-1.189l1.17-5.094L46.265,118.48L46.265,118.48z M49.575,115.19c-0.614,0-1.13-0.535-1.13-1.15
		c0-0.595,0.555-1.13,1.13-1.13s1.149,0.516,1.149,1.13C50.725,114.675,50.189,115.19,49.575,115.19z"/>
	<path fill="#FFFFFF" d="M59.326,119.353c0.179-0.714,0.476-1.665,1.367-1.665c0.456,0,0.733,0.317,0.733,0.753
		c0,0.357-0.316,0.614-0.614,0.654c-0.178,0.02-0.297-0.04-0.396-0.119c-0.099-0.06-0.198-0.139-0.316-0.139
		c-0.437,0-0.615,1.526-0.675,1.863c-0.297,1.507-1.764,2.597-3.25,2.597c-0.714,0-1.407-0.139-2.002-0.535
		c-0.456,0.218-1.15,0.535-1.15,1.13c0,0.119,0.198,0.258,0.297,0.277c0.793,0.158,1.646,0.119,2.458,0.158
		c3.23,0.14,3.786,0.694,3.786,2.161c0,1.625-1.229,3.072-2.716,3.607c-0.773,0.277-1.407,0.376-2.577,0.376
		c-1.288,0-3.667-0.713-3.667-2.339c0-1.229,1.309-2.081,2.419-2.2v-0.039c-0.754-0.179-1.189-0.575-1.189-1.407
		c0-0.496,0.119-1.189,1.942-2.021c-0.437-0.556-0.635-1.012-0.635-1.765c0-1.843,1.963-2.834,3.588-2.834
		C57.859,117.866,58.811,118.282,59.326,119.353z M54.847,129.977c1.665,0,3.825-0.912,3.825-2.814c0-0.595-0.357-0.714-0.853-0.833
		c-0.337-0.079-1.09-0.218-3.924-0.218c-0.932,0-1.942,0.972-1.942,1.903C51.953,129.561,53.598,129.977,54.847,129.977z
		 M55.977,122.802c1.03,0,1.09-0.1,1.784-2.419c0.455-1.546,0.02-2.021-1.07-2.021c-1.17,0-1.725,1.17-1.884,3.271
		C54.728,122.643,55.461,122.802,55.977,122.802z"/>
	<path fill="#FFFFFF" d="M65.746,119.848l0.039,0.04c0.813-1.07,1.923-2.021,3.35-2.021c0.952,0,1.765,0.535,1.765,1.565
		c0,0.377-0.06,0.654-0.139,1.011l-1.051,4.321c-0.079,0.297,0.139,0.436,0.437,0.436c0.555,0,1.625-1.704,1.783-2.199l0.396,0.178
		c-0.456,1.07-1.209,2.399-2.378,2.696c-0.476,0.118-0.654,0.118-1.13,0.118c-0.615,0-1.289-0.436-1.289-1.109
		c0-0.476,0.575-2.438,0.714-3.033c0.1-0.376,0.654-2.358,0.654-2.576c0-0.456-0.437-0.614-0.813-0.614
		c-1.209,0-2.498,2.002-2.735,3.072l-0.932,4.103h-2.042l1.665-7.354h-1.565l0.139-0.496h1.823c0.614,0,1.209-0.079,1.823-0.079
		L65.746,119.848z"/>
	<path fill="#FFFFFF" d="M79.221,125.834h-0.357l0.556-3.766h0.574c0.159,1.863,1.328,3.567,3.35,3.567
		c1.626,0,2.993-1.11,2.993-2.795c0-1.288-0.693-1.764-1.725-2.299c-0.635-0.317-1.248-0.654-1.863-0.952
		c-1.565-0.753-2.279-1.823-2.279-3.567c0-2.062,1.625-3.727,3.707-3.727c1.03,0,2.061,0.396,2.795,1.13l0.793-0.832h0.455
		l-0.516,3.508H87.09c-0.199-1.783-0.973-3.31-2.994-3.31c-1.248,0-2.438,1.011-2.438,2.279c0,1.13,1.288,1.685,2.676,2.358
		c1.367,0.654,2.775,1.447,3.172,2.974c0.099,0.396,0.119,0.713,0.119,1.13c0,2.655-1.765,4.598-4.48,4.598
		c-1.09,0-1.982-0.455-2.794-1.149L79.221,125.834z"/>
	<path fill="#FFFFFF" d="M93.826,118.163h1.684l-0.14,0.614h-1.664l-1.17,4.896c-0.139,0.595-0.258,1.169-0.258,1.367
		c0,0.277,0.199,0.416,0.456,0.416c0.773,0,1.606-1.605,1.884-2.239l0.436,0.099c-0.813,2.2-2.021,2.814-3.151,2.814
		c-0.753,0-1.546-0.376-1.546-1.229c0-0.179,0.119-0.832,0.277-1.507l1.03-4.618h-1.427l0.139-0.614h1.447l0.475-1.942
		c0.694-0.02,1.389-0.139,2.063-0.317L93.826,118.163z"/>
	<path fill="#FFFFFF" d="M99.553,123.039c-0.159,0.714-0.298,1.388-0.298,1.646c0,0.515,0.456,0.634,0.853,0.634
		c0.337,0,0.753-0.258,1.03-0.436c0.893-0.575,1.309-1.665,1.547-2.656l1.012-4.242h2.061l-1.328,5.808
		c-0.139,0.595-0.219,1.051-0.197,1.189c0.02,0.198,0.217,0.317,0.396,0.317c0.713,0,1.584-1.646,1.842-2.22l0.438,0.237
		c-0.516,1.328-1.605,2.814-3.133,2.814c-1.189,0-1.506-0.753-1.486-1.902c-0.852,1.07-1.863,1.902-3.251,1.902
		c-0.932,0-1.764-0.316-1.764-1.427c0-0.277,0.118-0.912,0.257-1.546l1.011-4.678h-1.565l0.139-0.496h1.823
		c0.317,0,0.615-0.02,0.912-0.039c0.297-0.02,0.614-0.04,0.913-0.04L99.553,123.039z"/>
	<path fill="#FFFFFF" d="M116.22,112.931h-1.764l0.139-0.496l3.826-0.139l-2.814,12.487c-0.041,0.198,0.098,0.456,0.336,0.456
		c0.674,0,1.625-1.566,1.844-2.141l0.358,0.179c-0.535,1.308-1.527,2.854-3.113,2.854c-0.99,0-1.309-0.555-1.387-1.486
		c-0.715,0.912-1.428,1.486-2.637,1.486c-1.902,0-3.053-1.288-3.053-3.19c0-1.982,1.705-4.4,3.607-4.916
		c0.416-0.119,0.635-0.158,1.07-0.158c1.031,0,1.764,0.476,2.16,1.407L116.22,112.931z M111.185,125.636
		c1.289,0,2.063-0.951,2.498-2.061c0.396-0.991,0.813-2.518,0.813-3.567c0-1.011-0.613-1.646-1.625-1.646
		c-1.289,0-1.844,1.605-2.16,2.616c-0.318,0.991-0.693,2.537-0.693,3.548C110.017,125.22,110.552,125.636,111.185,125.636z"/>
	<path fill="#FFFFFF" d="M119.21,118.48l0.139-0.496h1.824c0.316,0,0.615-0.02,0.912-0.039c0.297-0.02,0.613-0.04,0.912-0.04
		l-1.328,5.709c-0.1,0.416-0.277,0.991-0.277,1.209c0,0.297,0.158,0.436,0.436,0.436c0.852,0,1.525-1.565,1.902-2.2l0.436,0.159
		c-0.375,0.772-0.793,1.506-1.367,2.141c-0.475,0.516-1.229,0.853-1.922,0.772c-0.793-0.099-1.428-0.455-1.428-1.367
		c0-0.179,0.039-0.674,0.158-1.189l1.17-5.094L119.21,118.48L119.21,118.48z M122.521,115.19c-0.615,0-1.129-0.535-1.129-1.15
		c0-0.595,0.555-1.13,1.129-1.13s1.15,0.516,1.15,1.13C123.671,114.675,123.136,115.19,122.521,115.19z"/>
	<path fill="#FFFFFF" d="M132.37,118.659c0.734,0.674,1.17,1.486,1.17,2.497c0,2.557-2.398,4.975-4.955,4.975
		c-0.397,0-0.793-0.059-1.19-0.158c-1.506-0.356-2.359-1.685-2.359-3.311c0-1.446,0.992-2.774,1.983-3.687
		c0.674-0.614,1.566-1.109,2.875-1.109C130.745,117.866,131.716,118.084,132.37,118.659z M127.931,120.066
		c-0.277,0.892-0.754,3.013-0.754,3.944c0,1.05,0.219,1.625,1.389,1.625c0.336,0,0.713-0.079,1.029-0.198
		c0.834-0.317,1.23-2.339,1.428-3.072c0.158-0.634,0.377-2.002,0.377-2.597c0-1.03-0.555-1.407-1.506-1.407
		C128.782,118.361,128.247,119.095,127.931,120.066z"/>
</g>
<g>
	<path fill="#FFFFFF" d="M76.808,66.049c-0.79,0-1.464-0.278-2.019-0.833c-0.555-0.554-0.832-1.227-0.832-2.018h-5.718
		c0,2.361,0.837,4.379,2.514,6.055c1.677,1.676,3.694,2.515,6.055,2.515c2.35,0,4.362-0.839,6.036-2.515
		c1.678-1.676,2.516-3.693,2.516-6.055c0-1.593-0.396-2.9-1.188-3.922c-0.791-1.019-1.678-1.832-2.665-2.434
		c-0.983-0.602-1.923-1.032-2.813-1.293c-0.892-0.261-1.438-0.424-1.64-0.495c-0.425-0.118-1.047-0.44-1.866-0.965
		c-0.822-0.526-1.231-1.296-1.231-2.312c0-0.777,0.277-1.45,0.832-2.01c0.555-0.561,1.229-0.841,2.019-0.841
		c0.779,0,1.449,0.28,2.01,0.841c0.562,0.559,0.84,1.232,0.84,2.01h5.702c0-2.348-0.838-4.361-2.516-6.036
		c-1.674-1.676-3.687-2.515-6.036-2.515c-2.36,0-4.378,0.839-6.055,2.515c-1.677,1.675-2.514,3.688-2.514,6.036
		c0,1.559,0.383,2.86,1.15,3.905c0.767,1.044,1.632,1.885,2.593,2.523c0.964,0.637,1.872,1.104,2.727,1.398
		c0.857,0.295,1.373,0.471,1.551,0.531c0.341,0.13,0.994,0.372,1.954,0.726c0.964,0.354,1.443,1.134,1.443,2.337
		c0,0.791-0.278,1.465-0.84,2.018C78.257,65.771,77.587,66.049,76.808,66.049z"/>
	<polygon fill="#FFFFFF" points="49.162,43.807 42.934,57.056 55.384,57.056 	"/>
	<path fill="#FFFFFF" d="M103.788,71.767c1.961,0,3.805-0.373,5.533-1.124c1.73-0.748,3.248-1.773,4.559-3.071l-4.035-4.038
		c-1.678,1.678-3.695,2.516-6.057,2.516c-2.359,0-4.376-0.837-6.047-2.507c-1.669-1.669-2.505-3.686-2.505-6.046
		c0-2.35,0.836-4.362,2.505-6.046c1.671-1.683,3.687-2.523,6.047-2.523c2.338,0,4.357,0.839,6.057,2.516l4.035-4.037
		c-1.311-1.286-2.828-2.305-4.559-3.055c-1.729-0.75-3.572-1.124-5.533-1.124c-3.931,0-7.29,1.398-10.084,4.196
		c-2.79,2.797-4.187,6.154-4.187,10.073c0,3.931,1.396,7.292,4.187,10.085C96.498,70.37,99.857,71.767,103.788,71.767z"/>
	<path fill="#FFFFFF" d="M16.313,20.232v75.43H38.99V74.733l3.705-7.887h12.926l3.701,7.887v20.929h74.364v-75.43
		C133.686,20.232,16.313,20.232,16.313,20.232z M129.735,91.711H63.273V73.853l-5.931-12.628H40.976l-5.938,12.628v17.858H20.266
		V24.183h109.47v67.528H129.735z"/>
</g>
</svg>
