<?xml version="1.0" encoding="utf-8"?>
<!-- Generator: Adobe Illustrator 17.0.0, SVG Export Plug-In . SVG Version: 6.00 Build 0)  -->
<!DOCTYPE svg PUBLIC "-//W3C//DTD SVG 1.1//EN" "http://www.w3.org/Graphics/SVG/1.1/DTD/svg11.dtd">
<svg version="1.1" id="Layer_1" xmlns="http://www.w3.org/2000/svg" xmlns:xlink="http://www.w3.org/1999/xlink" x="0px" y="0px"
	 width="120px" height="80px" viewBox="0 0 120 80" style="enable-background:new 0 0 120 80;" xml:space="preserve">
<style type="text/css">
	.st0{fill:#FFFFFF;}
</style>
<g>
	<path class="st0" d="M11.408,18.541c-0.023-0.52,0.174-0.942,0.868-0.942c0.694,0,7.733,0.223,12.466,0.223
		c9.814,0,12.169-0.793,13.854-0.793c0.942,0.025,1.14,0.744,1.14,1.165c0,0.421-0.446,1.313-0.446,2.478
		c0,1.165,0.273,2.404,0.273,3.42c0,1.016-0.867,1.363-1.338,1.363c-0.471,0-0.767-0.174-0.793-1.041
		c-0.049-1.66,1.165-4.064-10.756-4.064c-6.072,0-6.221,0.694-6.221,2.627c0,1.933,0.05,8.327,0.05,9.318
		c0,0.992,0.297,1.289,1.091,1.289c0.793,0,7.014,0,8.699,0s3.395-0.917,3.594-3.296c0.074-1.264,0.421-1.314,1.041-1.314
		c0.619,0,1.189,0.496,1.09,1.685c-0.099,1.19-0.347,2.454-0.347,4.164c0,1.71,0.347,3.396,0.347,4.634
		c0,1.24-1.636,1.537-1.958,0.199c-0.322-1.338-0.793-3.594-4.61-3.594c-3.817,0-6.89,0-7.732,0c-0.843,0-1.264,0.471-1.264,1.859
		c0,1.388,0,8.179,0,9.889c0,1.71,0.52,3.544,3.99,3.544c3.47,0,9.765,0.372,12.64-1.884c1.239-1.016,1.611-2.429,2.032-4.733
		c0.198-1.066,2.503-1.041,2.404,1.413c-0.074,1.14-1.167,3.588-1.167,5.159c0,1.314,0.3,3.072-0.915,3.072
		c-1.027,0-0.595-0.523-5.105-0.523c-4.511,0-20.075,0.099-22.677,0.099c-0.967,0-1.165-0.273-1.165-0.868
		c0-0.595,0.347-1.041,1.165-1.041c0.818,0,4.287,0.049,4.287-4.362c0-4.412,0-20.546,0-22.925s-0.52-4.758-3.445-5.056
		C11.358,19.606,11.433,19.11,11.408,18.541z"/>
	<path class="st0" d="M43.23,32.411c0-0.743,0.397-1.057,1.289-1.355c1.685-0.644,3.618-2.528,5.254-6.989
		c0.52-1.413,2.305-1.041,2.082,0.397c-0.223,1.437-0.545,4.089-0.545,5.601c0.768,0,6.468,0,7.187,0
		c0.719,0,0.843,0.868,0.843,1.561c0,0.694-0.198,1.264-0.818,1.264c-0.669,0-7.212,0-7.212,0s0,7.955,0,12.441
		c0,4.486,1.537,5.527,3.594,5.527c1.19,0,2.156-0.471,3.048-1.09c0.595-0.446,1.933,0.619,1.264,1.487
		c-0.669,0.868-3.024,3.42-6.394,3.42c-3.371,0-5.799-2.503-5.75-6.691c0.049-4.189,0.223-11.178,0.223-12.144
		c0-0.967-1.264-2.33-2.677-2.33C43.453,33.485,43.23,32.874,43.23,32.411z"/>
	<path class="st0" d="M72.4,29.346c2.33,0,4.139,0.818,4.907,0.818c0.768,0,1.066-0.967,1.908-0.967
		c0.843,0,1.041,0.967,0.818,1.784c-0.223,0.818-0.372,2.751-0.273,4.907c0.025,0.743-0.57,1.189-1.165,1.189
		s-0.818-0.248-1.066-1.388c-0.247-1.14-1.264-3.891-5.279-3.891c-2.9,0-4.015,1.933-4.015,3.197c0,1.264,0.678,2.473,3.767,3.817
		c3.247,1.413,9.244,2.925,9.244,8.674c-0.198,5.403-5.552,7.113-8.699,7.113c-2.652,0-5.13-0.793-6.221-0.793
		s-1.512,0.917-2.206,0.917c-0.694,0-1.19-0.793-0.917-1.611c0.272-0.818,0.619-1.437,0.619-2.255c0-0.818-0.471-2.726-0.198-4.312
		c0.273-1.586,2.404-1.809,2.38-0.272c-0.025,1.537,0.669,5.923,6.221,5.923c4.486,0,5.006-3.123,5.006-4.015
		c0-1.091-0.223-2.652-5.601-4.783c-5.378-2.131-7.46-4.114-7.46-7.509C64.172,32.494,67.195,29.346,72.4,29.346z"/>
	<path class="st0" d="M82.809,30.783c0-0.52,0.025-0.768,0.619-0.768s3.742,0.099,5.403,0.099c1.661,0,4.709-0.099,5.329-0.099
		c0.446,0,0.322,0.545,0.322,0.917c0,0.372,0.049,0.991-0.744,0.991c-0.793,0-2.28,0.273-2.28,1.586c0,1.313,0.35,1.68,0.867,3.098
		c0.57,1.561,4.684,11.004,4.684,11.004s3.222-6.617,4.188-8.476c0.967-1.859,1.561-4.189,1.561-5.23s-1.066-1.735-1.958-1.908
		c-0.892-0.174-1.338-0.124-1.338-1.19c0-0.545,0.099-0.843,0.545-0.843c0.446,0,3.123,0.173,5.105,0.173
		c1.983,0,4.288-0.124,4.932-0.124c0.595,0,0.421,0.496,0.421,0.917c0,0.421-0.05,0.842-0.57,0.917
		c-0.52,0.074-2.825-0.025-5.229,5.081c-2.404,5.105-7.163,15.391-10.607,22.082c-1.785,3.519-5.155,7.361-8.674,7.361
		c-1.834,0.025-2.553-1.561-2.553-2.355c0-0.793,0.446-2.082,2.528-2.082c1.388,0,1.76,0.669,2.429,0.669
		c1.388,0,4.907-3.371,5.899-9.418c0.149-1.388-1.279-4.787-1.834-6.32c-0.826-2.28-3.338-8.889-5.155-12.813
		c-0.621-1.341-2.255-2.032-3.296-2.156C82.908,31.8,82.809,31.626,82.809,30.783z"/>
</g>
</svg>
