<?xml version="1.0" encoding="utf-8"?>
<!-- Generator: Adobe Illustrator 17.0.0, SVG Export Plug-In . SVG Version: 6.00 Build 0)  -->
<!DOCTYPE svg PUBLIC "-//W3C//DTD SVG 1.1//EN" "http://www.w3.org/Graphics/SVG/1.1/DTD/svg11.dtd">
<svg version="1.1" id="BW_Icon_Only" xmlns="http://www.w3.org/2000/svg" xmlns:xlink="http://www.w3.org/1999/xlink" x="0px"
	 y="0px" width="93.25px" height="101.5px" viewBox="0 0 93.25 101.5" style="enable-background:new 0 0 93.25 101.5;"
	 xml:space="preserve">
<style type="text/css">
	.st0{fill:#FFFFFF;}
</style>
<g id="Layer_3">
	<g>
		<path class="st0" d="M67.949,5.293L57.048,8.204l0.438,3.473l-0.523,3.846l0.329,2.612C60.804,12.713,64.513,8.504,67.949,5.293z"
			/>
		<path class="st0" d="M85.995,32.589c0.966-2.706,2.03-5.085,3.153-7.193V7.503c0-1.823-1.483-3.306-3.306-3.306H73.961
			c-6.766,5.281-16.017,15.034-22.145,31.747c-7.599,20.724-16.038,29.565-28.22,29.565c-5.08,0-10.892-1.531-18.141-4.795
			c0.354,1.973,1.273,4.849,3.646,7.333c4.073,4.264,11.032,6.041,20.511,5.218l1.783-0.154l-0.16,1.783
			c-0.012,0.131-1.037,12.414,4.43,20.331c1.808-2.981,5.633-10.709,8.94-26.769l0.167-0.812l0.777-0.291
			C45.872,67.234,77.997,54.985,85.995,32.589z M88.574,22.427c-7.333,16-7.5-17.667-7.5-17.667
			C83.574,28.426,88.574,22.427,88.574,22.427z"/>
		<path class="st0" d="M71.513,4.197c-0.007,0.006-0.014,0.011-0.021,0.017c0.072-0.006,0.153-0.011,0.23-0.017H71.513z"/>
		<path d="M88.574,22.427c0,0-5,5.999-7.5-17.667C81.074,4.76,81.241,38.427,88.574,22.427z"/>
		<path d="M91.148,7.503v-0.5c0-2.65-2.156-4.806-4.806-4.806h-0.5H33.233h-0.5v0.051c-2.413,0.254-4.306,2.277-4.306,4.756v53.11
			c0,0.592,0.122,1.153,0.319,1.677c-1.637,0.48-3.349,0.719-5.15,0.719c-5.154,0-11.257-1.78-19.205-5.601l-2.029-0.975
			l-0.119,2.248c-0.014,0.271-0.294,6.685,4.648,11.896c4.469,4.712,11.591,6.847,21.264,6.3c-0.116,4.274,0.248,15.313,6.46,22.374
			l1.117,1.27l1.127-1.26c0.239-0.268,5.854-6.74,10.518-28.897c1.634-0.652,5.557-2.305,10.411-4.945h28.554
			c2.65,0,4.806-2.156,4.806-4.806V40.77V7.503z M44.772,67.646l-0.167,0.812c-3.307,16.059-7.132,23.787-8.94,26.769
			c-5.466-7.917-4.442-20.2-4.43-20.331l0.16-1.783l-1.783,0.154c-9.479,0.823-16.438-0.954-20.511-5.218
			c-2.373-2.484-3.292-5.36-3.646-7.333c7.249,3.265,13.061,4.795,18.141,4.795c12.182,0,20.622-8.842,28.22-29.565
			C57.944,19.231,67.195,9.478,73.961,4.197h11.881c1.823,0,3.306,1.483,3.306,3.306v17.893c-1.124,2.108-2.187,4.487-3.153,7.193
			c-7.999,22.396-40.123,34.645-40.446,34.766L44.772,67.646z M71.492,4.214c0.007-0.006,0.014-0.011,0.021-0.017h0.209
			C71.646,4.203,71.565,4.208,71.492,4.214z M57.293,18.134l-0.329-2.612l0.523-3.846l-0.438-3.473l10.901-2.911
			C64.513,8.504,60.804,12.713,57.293,18.134z"/>
	</g>
</g>
</svg>
