<?xml version="1.0" encoding="utf-8"?>
<!-- Generator: Adobe Illustrator 17.0.0, SVG Export Plug-In . SVG Version: 6.00 Build 0)  -->
<!DOCTYPE svg PUBLIC "-//W3C//DTD SVG 1.1//EN" "http://www.w3.org/Graphics/SVG/1.1/DTD/svg11.dtd">
<svg version="1.1" id="Live" xmlns="http://www.w3.org/2000/svg" xmlns:xlink="http://www.w3.org/1999/xlink" x="0px" y="0px"
	 width="35px" height="35px" viewBox="0 0 35 35" style="enable-background:new 0 0 35 35;" xml:space="preserve">
<style type="text/css">
	.st0{fill:#FFFFFF;}
</style>
<g>
	<g>
		<path class="st0" d="M11.076,24.281c-0.82,0-1.498-0.067-2.035-0.2c-0.537-0.134-0.961-0.304-1.274-0.513
			c-0.319-0.209-0.537-0.431-0.654-0.669c-0.117-0.237-0.176-0.46-0.176-0.668c0-0.377,0.142-0.707,0.425-0.991
			c0.283-0.282,0.659-0.424,1.127-0.424c0.39,0,0.717,0.101,0.981,0.303s0.483,0.455,0.659,0.761
			c0.162,0.279,0.299,0.589,0.41,0.927c0.11,0.338,0.189,0.589,0.234,0.752c0.735,0,1.291-0.158,1.669-0.473
			c0.377-0.316,0.566-0.747,0.566-1.294c0-0.24-0.057-0.443-0.171-0.605c-0.114-0.162-0.265-0.306-0.454-0.429
			c-0.189-0.117-0.429-0.231-0.722-0.342c-0.293-0.111-0.582-0.215-0.869-0.312c-0.787-0.267-1.41-0.636-1.869-1.108
			c-0.459-0.471-0.688-1.059-0.688-1.762c0-0.416,0.096-0.808,0.288-1.176c0.192-0.367,0.493-0.708,0.903-1.02
			c0.403-0.299,0.914-0.538,1.532-0.717c0.618-0.179,1.34-0.268,2.167-0.268c0.494,0,0.953,0.029,1.376,0.088
			c0.423,0.059,0.816,0.166,1.181,0.322c0.345,0.156,0.613,0.36,0.805,0.61c0.192,0.251,0.288,0.555,0.288,0.913
			c0,0.358-0.135,0.665-0.405,0.922c-0.27,0.257-0.623,0.386-1.059,0.386c-0.378,0-0.692-0.098-0.942-0.294
			c-0.251-0.196-0.454-0.429-0.61-0.696c-0.156-0.274-0.28-0.557-0.371-0.847c-0.091-0.291-0.166-0.534-0.224-0.73
			c-0.456,0.026-0.87,0.192-1.244,0.496c-0.374,0.304-0.561,0.682-0.561,1.134c0,0.273,0.044,0.488,0.132,0.644
			c0.088,0.156,0.206,0.287,0.356,0.39c0.169,0.117,0.382,0.226,0.639,0.327c0.257,0.1,0.577,0.216,0.961,0.346
			c0.885,0.312,1.552,0.687,2.001,1.122s0.673,1.011,0.673,1.728c0,0.468-0.109,0.917-0.327,1.347
			c-0.218,0.429-0.529,0.787-0.932,1.074c-0.449,0.312-0.966,0.548-1.552,0.708C12.725,24.201,11.98,24.281,11.076,24.281z"/>
		<path class="st0" d="M20.975,24.3c-1.458,0-2.621-0.413-3.49-1.24s-1.303-1.923-1.303-3.289c0-2.61,0.976-4.845,2.928-6.706
			c1.952-1.861,4.529-2.973,7.73-3.338l0.049,0.966l-1.064,0.175c-0.82,0.215-1.534,0.513-2.142,0.897
			c-0.609,0.383-1.124,0.805-1.547,1.267c-0.416,0.455-0.767,0.961-1.049,1.52c-0.284,0.559-0.536,1.146-0.757,1.763
			c0.436-0.362,0.956-0.665,1.562-0.91c0.605-0.245,1.327-0.368,2.167-0.368c0.976,0,1.794,0.326,2.455,0.976
			c0.66,0.65,0.99,1.497,0.99,2.538c0,1.555-0.63,2.902-1.888,4.041C24.356,23.73,22.81,24.3,20.975,24.3z M23.864,18.581
			c0-0.684-0.156-1.224-0.468-1.621c-0.311-0.397-0.707-0.595-1.187-0.595c-0.383,0-0.745,0.073-1.086,0.219
			c-0.341,0.146-0.703,0.438-1.085,0.874c-0.045,0.201-0.127,0.591-0.244,1.166c-0.117,0.577-0.176,1.284-0.176,2.123
			c0,0.859,0.141,1.529,0.423,2.011c0.283,0.482,0.657,0.722,1.125,0.722c0.727,0,1.358-0.476,1.894-1.429
			C23.596,21.097,23.864,19.941,23.864,18.581z"/>
	</g>
</g>
</svg>
