<?xml version="1.0" encoding="utf-8"?>
<!-- Generator: Adobe Illustrator 17.0.0, SVG Export Plug-In . SVG Version: 6.00 Build 0)  -->
<!DOCTYPE svg PUBLIC "-//W3C//DTD SVG 1.1//EN" "http://www.w3.org/Graphics/SVG/1.1/DTD/svg11.dtd">
<svg version="1.1" id="Art" xmlns="http://www.w3.org/2000/svg" xmlns:xlink="http://www.w3.org/1999/xlink" x="0px" y="0px"
	 width="120px" height="80px" viewBox="0 0 120 80" style="enable-background:new 0 0 120 80;" xml:space="preserve">
<style type="text/css">
	.st0{fill:#FFFFFF;}
</style>
<g>
	<path class="st0" d="M12.949,47.518c-1.079,0-1.973-0.088-2.679-0.264c-0.707-0.175-1.266-0.4-1.677-0.674
		c-0.42-0.274-0.707-0.567-0.861-0.88C7.577,45.386,7.5,45.093,7.5,44.819c0-0.497,0.186-0.932,0.559-1.304
		c0.373-0.374,0.867-0.56,1.484-0.56c0.514,0,0.945,0.132,1.292,0.398s0.636,0.6,0.867,1.002c0.214,0.369,0.394,0.775,0.54,1.221
		c0.146,0.446,0.249,0.775,0.308,0.99c0.968,0,1.701-0.208,2.197-0.624c0.497-0.415,0.745-0.983,0.745-1.702
		c0-0.317-0.075-0.582-0.225-0.797c-0.15-0.215-0.349-0.402-0.598-0.565c-0.249-0.154-0.565-0.304-0.951-0.45
		c-0.386-0.145-0.767-0.283-1.144-0.411c-1.036-0.351-1.857-0.837-2.461-1.459c-0.604-0.621-0.906-1.394-0.906-2.32
		c0-0.548,0.127-1.065,0.379-1.549c0.253-0.484,0.649-0.932,1.189-1.343c0.531-0.394,1.204-0.709,2.018-0.945
		c0.814-0.236,1.765-0.353,2.853-0.353c0.651,0,1.255,0.039,1.812,0.116c0.557,0.077,1.075,0.218,1.555,0.424
		c0.454,0.206,0.808,0.474,1.06,0.803s0.379,0.731,0.379,1.202c0,0.471-0.178,0.876-0.533,1.214
		c-0.355,0.339-0.82,0.508-1.394,0.508c-0.497,0-0.91-0.129-1.24-0.387s-0.598-0.563-0.803-0.916
		c-0.206-0.361-0.368-0.733-0.488-1.116c-0.12-0.383-0.218-0.703-0.296-0.961c-0.6,0.035-1.146,0.252-1.638,0.653
		s-0.739,0.899-0.739,1.493c0,0.36,0.058,0.643,0.173,0.848c0.116,0.206,0.272,0.377,0.469,0.514
		c0.223,0.154,0.503,0.298,0.842,0.431c0.339,0.133,0.76,0.285,1.266,0.456c1.165,0.411,2.043,0.904,2.634,1.478
		c0.591,0.574,0.887,1.333,0.887,2.275c0,0.617-0.143,1.208-0.431,1.773c-0.287,0.565-0.696,1.037-1.227,1.414
		c-0.591,0.411-1.272,0.722-2.043,0.931C15.121,47.413,14.139,47.518,12.949,47.518z"/>
	<path class="st0" d="M35.259,39.396c0,1.079-0.206,2.112-0.617,3.097c-0.411,0.986-0.994,1.842-1.748,2.57
		c-0.814,0.78-1.767,1.382-2.859,1.805c-1.092,0.425-2.32,0.637-3.682,0.637c-1.825,0-3.298-0.486-4.421-1.459
		c-1.122-0.972-1.683-2.297-1.683-3.977c0-1.139,0.212-2.197,0.636-3.174c0.424-0.977,1.017-1.829,1.78-2.557
		c0.754-0.711,1.679-1.274,2.776-1.69c1.097-0.416,2.283-0.623,3.56-0.623c1.936,0,3.463,0.474,4.581,1.42
		C34.7,36.391,35.259,37.708,35.259,39.396z M30.736,37.944c0-1.002-0.169-1.739-0.508-2.21c-0.339-0.471-0.829-0.707-1.471-0.707
		c-0.66,0-1.264,0.263-1.812,0.79s-0.994,1.3-1.336,2.32c-0.3,0.848-0.514,1.767-0.643,2.757c-0.129,0.989-0.193,1.874-0.193,2.654
		c0,1.037,0.172,1.788,0.514,2.256c0.343,0.467,0.84,0.7,1.491,0.7c0.702,0,1.311-0.287,1.825-0.861
		c0.514-0.574,0.921-1.281,1.221-2.12c0.3-0.822,0.527-1.733,0.681-2.731C30.659,39.792,30.736,38.843,30.736,37.944z"/>
	<path class="st0" d="M41.699,47.518c-1.971,0-3.506-0.492-4.607-1.478c-1.101-0.986-1.651-2.339-1.651-4.061
		c0-1.036,0.175-2.02,0.527-2.949s0.891-1.775,1.619-2.538c0.677-0.72,1.547-1.306,2.609-1.761s2.249-0.681,3.56-0.681
		c1.516,0,2.675,0.278,3.476,0.835c0.801,0.557,1.202,1.324,1.202,2.3c0,0.265-0.043,0.561-0.129,0.887
		c-0.086,0.326-0.214,0.6-0.386,0.822c-0.214,0.274-0.448,0.484-0.7,0.63c-0.253,0.146-0.632,0.218-1.137,0.218
		c-0.668,0-1.189-0.165-1.561-0.495c-0.373-0.33-0.559-0.675-0.559-1.034c0-0.429,0.09-0.853,0.27-1.272
		c0.18-0.42,0.407-0.861,0.681-1.324c-0.077-0.094-0.233-0.21-0.469-0.347c-0.236-0.137-0.542-0.206-0.919-0.206
		c-1.002,0-1.833,0.606-2.493,1.818c-0.66,1.212-0.99,2.714-0.99,4.504c0,1.362,0.251,2.394,0.752,3.097
		c0.501,0.703,1.214,1.054,2.14,1.054c0.943,0,1.728-0.182,2.358-0.547c0.63-0.364,1.274-0.987,1.934-1.869l0.925,0.784
		c-0.702,1.088-1.632,1.962-2.789,2.622C44.205,47.188,42.984,47.518,41.699,47.518z"/>
	<path class="st0" d="M56.748,45.256l-0.283,1.157c-0.848,0.334-1.525,0.589-2.03,0.764c-0.506,0.176-1.092,0.264-1.761,0.264
		c-1.028,0-1.827-0.25-2.397-0.752c-0.57-0.5-0.855-1.137-0.855-1.908c0-0.3,0.021-0.606,0.064-0.919
		c0.043-0.312,0.111-0.665,0.206-1.06l1.061-3.752c0.095-0.36,0.174-0.7,0.239-1.022c0.064-0.321,0.096-0.615,0.096-0.88
		c0-0.48-0.099-0.814-0.296-1.002c-0.198-0.188-0.575-0.283-1.134-0.283c-0.275,0-0.556,0.043-0.844,0.129
		c-0.288,0.086-0.535,0.167-0.741,0.244l0.283-1.157c0.694-0.283,1.359-0.525,1.994-0.726c0.635-0.201,1.235-0.302,1.802-0.302
		c1.021,0,1.808,0.246,2.361,0.739c0.553,0.493,0.83,1.133,0.83,1.921c0,0.163-0.019,0.45-0.058,0.861s-0.109,0.788-0.212,1.131
		l-1.057,3.74c-0.086,0.3-0.164,0.643-0.232,1.028s-0.103,0.677-0.103,0.874c0,0.497,0.111,0.835,0.333,1.015
		c0.222,0.18,0.607,0.27,1.155,0.27c0.257,0,0.548-0.045,0.873-0.134C56.367,45.403,56.603,45.324,56.748,45.256z M57.018,29.565
		c0,0.651-0.246,1.206-0.739,1.664s-1.086,0.688-1.78,0.688s-1.29-0.229-1.786-0.688s-0.745-1.013-0.745-1.664
		s0.249-1.208,0.745-1.671s1.092-0.694,1.786-0.694s1.287,0.231,1.78,0.694S57.018,28.914,57.018,29.565z"/>
	<path class="st0" d="M63.174,47.518c-1.028,0-1.929-0.139-2.705-0.418c-0.776-0.278-1.416-0.665-1.921-1.163
		c-0.497-0.497-0.869-1.076-1.118-1.735c-0.249-0.659-0.373-1.388-0.373-2.185c0-1.011,0.188-1.992,0.565-2.943
		c0.377-0.951,0.938-1.808,1.683-2.57c0.702-0.728,1.594-1.319,2.673-1.773c1.08-0.454,2.27-0.681,3.573-0.681
		c1.532,0,2.701,0.244,3.501,0.732c0.801,0.488,1.202,1.221,1.202,2.197c0,0.934-0.348,1.737-1.042,2.41s-1.635,1.171-2.827,1.497
		c-0.941,0.283-1.746,0.483-2.41,0.604c-0.662,0.121-1.475,0.231-2.434,0.334c0.017,0.377,0.069,0.801,0.154,1.272
		c0.086,0.472,0.214,0.874,0.386,1.208c0.206,0.386,0.497,0.692,0.874,0.918c0.376,0.227,0.856,0.341,1.439,0.341
		c1.01,0,1.868-0.195,2.576-0.584c0.706-0.39,1.382-1.009,2.025-1.857l0.937,0.784c-0.771,1.096-1.758,1.973-2.962,2.628
		C65.768,47.191,64.503,47.518,63.174,47.518z M66.079,37.34c0-0.728-0.132-1.287-0.397-1.677c-0.267-0.39-0.635-0.585-1.105-0.585
		c-0.66,0-1.283,0.538-1.87,1.613c-0.587,1.075-0.962,2.435-1.124,4.08c0.506-0.06,1.007-0.137,1.504-0.231
		c0.496-0.094,0.89-0.206,1.182-0.334c0.643-0.283,1.105-0.647,1.388-1.092C65.938,38.668,66.079,38.077,66.079,37.34z"/>
	<path class="st0" d="M74.485,47.428c-1.028,0-1.851-0.251-2.467-0.751c-0.617-0.502-0.925-1.138-0.925-1.909
		c0-0.317,0.022-0.617,0.064-0.9c0.043-0.283,0.112-0.646,0.206-1.092l1.594-6.837h-2.352l0.307-1.324h2.4l0.929-3.894h4.162
		L77.5,34.615h3.488l-0.308,1.324h-3.47l-1.567,6.837c-0.059,0.24-0.118,0.531-0.173,0.874c-0.056,0.343-0.084,0.565-0.084,0.668
		c0,0.488,0.135,0.826,0.405,1.015s0.683,0.283,1.24,0.283c0.265,0,0.632-0.051,1.098-0.154c0.467-0.103,0.794-0.189,0.983-0.257
		l-0.283,1.157c-0.754,0.334-1.51,0.595-2.268,0.784C75.802,47.334,75.111,47.428,74.485,47.428z"/>
	<path class="st0" d="M91.047,45.038h-0.09c-0.966,0.883-1.855,1.495-2.668,1.838c-0.813,0.343-1.71,0.514-2.694,0.514
		c-0.949,0-1.686-0.266-2.212-0.797c-0.526-0.531-0.789-1.169-0.789-1.915c0-0.266,0.015-0.536,0.045-0.81
		c0.03-0.274,0.109-0.659,0.238-1.157l0.967-3.508c0.06-0.24,0.131-0.567,0.213-0.983c0.082-0.416,0.123-0.722,0.123-0.919
		c0-0.488-0.097-0.824-0.29-1.009c-0.193-0.184-0.568-0.276-1.126-0.276c-0.275,0-0.556,0.043-0.843,0.129
		c-0.288,0.086-0.535,0.167-0.74,0.244l0.283-1.157c0.695-0.283,1.359-0.525,1.994-0.726c0.635-0.201,1.235-0.302,1.801-0.302
		c1.02,0,1.807,0.255,2.361,0.766c0.553,0.511,0.829,1.143,0.829,1.897c0,0.155-0.018,0.438-0.051,0.85
		c-0.035,0.411-0.103,0.793-0.206,1.145l-0.94,3.345c-0.086,0.301-0.155,0.623-0.207,0.966c-0.051,0.343-0.077,0.591-0.077,0.745
		c0,0.429,0.105,0.755,0.314,0.979c0.209,0.222,0.54,0.334,0.991,0.334c0.376,0,0.851-0.144,1.427-0.434
		c0.575-0.29,1.107-0.676,1.594-1.16l1.966-9.214l4.074-0.18l0.18,0.206l-2.261,10.448c-0.344,1.559-0.823,2.846-1.439,3.862
		c-0.617,1.014-1.331,1.822-2.144,2.422c-0.779,0.574-1.622,0.988-2.53,1.24c-0.906,0.253-1.827,0.38-2.76,0.38
		c-1.018,0-1.863-0.075-2.536-0.225c-0.672-0.149-1.196-0.357-1.573-0.623c-0.342-0.24-0.575-0.508-0.7-0.803
		c-0.124-0.297-0.186-0.585-0.186-0.868c0-0.497,0.175-0.938,0.526-1.324c0.351-0.386,0.829-0.578,1.437-0.578
		c0.462,0,0.874,0.125,1.238,0.373c0.364,0.248,0.682,0.549,0.956,0.9c0.265,0.334,0.502,0.705,0.712,1.112
		c0.21,0.406,0.371,0.738,0.481,0.995c0.154-0.026,0.344-0.079,0.571-0.161c0.226-0.081,0.416-0.173,0.57-0.276
		c0.222-0.145,0.419-0.292,0.59-0.437s0.368-0.369,0.59-0.668c0.428-0.574,0.809-1.285,1.142-2.133
		C90.534,47.235,90.816,46.22,91.047,45.038z"/>
	<path class="st0" d="M103.903,47.543c-1.919,0-3.451-0.544-4.594-1.632c-1.145-1.088-1.716-2.532-1.716-4.331
		c0-3.436,1.285-6.378,3.855-8.829c2.57-2.45,5.963-3.915,10.178-4.395l0.064,1.272l-1.401,0.231
		c-1.079,0.282-2.02,0.676-2.821,1.18c-0.801,0.505-1.48,1.061-2.036,1.668c-0.549,0.599-1.008,1.266-1.382,2.002
		c-0.372,0.735-0.704,1.509-0.995,2.322c0.574-0.476,1.259-0.876,2.056-1.199c0.797-0.323,1.748-0.485,2.853-0.485
		c1.285,0,2.363,0.429,3.231,1.285c0.87,0.857,1.305,1.971,1.305,3.341c0,2.048-0.828,3.821-2.487,5.32
		C108.356,46.794,106.319,47.543,103.903,47.543z M107.707,40.013c0-0.9-0.206-1.611-0.615-2.133
		c-0.41-0.522-0.932-0.784-1.564-0.784c-0.505,0-0.982,0.096-1.429,0.289c-0.449,0.193-0.925,0.576-1.429,1.15
		c-0.06,0.265-0.167,0.777-0.321,1.536c-0.154,0.758-0.231,1.69-0.231,2.795c0,1.131,0.186,2.014,0.558,2.647
		c0.372,0.634,0.866,0.951,1.481,0.951c0.958,0,1.789-0.628,2.494-1.883C107.354,43.326,107.707,41.803,107.707,40.013z"/>
</g>
<polygon class="st0" points="30.628,33 21.75,49 23.48,49 32.357,33 "/>
<polygon class="st0" points="23.381,49 21.381,49 30.619,33 32.619,33 "/>
</svg>
