<?xml version="1.0" standalone="no"?>
<!DOCTYPE svg PUBLIC "-//W3C//DTD SVG 1.1//EN" "http://www.w3.org/Graphics/SVG/1.1/DTD/svg11.dtd" >
<svg xmlns="http://www.w3.org/2000/svg" xmlns:xlink="http://www.w3.org/1999/xlink" version="1.1">
<metadata></metadata>
<defs>
<font id="wes_fythin" horiz-adv-x="1044" >
<font-face units-per-em="2048" ascent="1575" descent="-473" />
<missing-glyph horiz-adv-x="409" />
<glyph unicode="&#xfb01;" horiz-adv-x="915" d="M-8 965v61h168v80q0 162 75.5 243t208.5 81q57 0 101 -15v-63q-43 16 -117 16q-97 0 -148 -66.5t-51 -185.5v-90h318v-61h-318v-965h-69v965h-168zM674 1290q0 32 18 52t49 20q29 0 46.5 -20t17.5 -52q0 -29 -17.5 -47t-46.5 -18q-31 0 -49 18t-18 47zM705 0v1026h69 v-1026h-69z" />
<glyph unicode="&#xfb02;" horiz-adv-x="913" d="M-8 965v61h168v80q0 162 75.5 243t208.5 81q57 0 101 -15v-63q-43 16 -117 16q-97 0 -148 -66.5t-51 -185.5v-90h318v-61h-318v-965h-69v965h-168zM705 0v1413h69v-1413h-69z" />
<glyph horiz-adv-x="0" />
<glyph horiz-adv-x="682" />
<glyph horiz-adv-x="614" />
<glyph horiz-adv-x="614" />
<glyph unicode="&#xd;" horiz-adv-x="614" />
<glyph unicode=" "  horiz-adv-x="409" />
<glyph unicode="&#x09;" horiz-adv-x="409" />
<glyph unicode="&#xa0;" horiz-adv-x="409" />
<glyph unicode="!" horiz-adv-x="495" d="M180 49q0 32 18.5 52t49.5 20q29 0 46 -19.5t17 -52.5q0 -29 -17 -47t-46 -18q-31 0 -49.5 18t-18.5 47zM213 1475h70l-11 -1141h-49z" />
<glyph unicode="&#x22;" horiz-adv-x="733" d="M205 1475h92l-23 -451h-47zM436 1475h92l-22 -451h-47z" />
<glyph unicode="#" horiz-adv-x="1286" d="M90 336l23 63h149l180 676h-188l22 64h183l90 336h63l-88 -336h443l90 336h65l-90 -336h164l-25 -64h-155l-178 -676h196l-22 -63h-191l-88 -336h-67l88 336h-441l-88 -336h-67l88 336h-156zM330 399h440l180 676h-442z" />
<glyph unicode="$" horiz-adv-x="1075" d="M82 236l55 43q161 -232 402 -232q182 0 279 85.5t97 244.5q0 51 -9.5 92.5t-25 73.5t-42 58.5t-54.5 45t-69.5 36t-79 29.5t-90.5 27q-215 59 -315.5 152t-100.5 250q0 146 97.5 244.5t271.5 105.5v190h69v-190q126 -7 225 -62.5t162 -148.5l-53 -39q-77 102 -166 145.5 t-213 43.5q-158 0 -238.5 -82.5t-80.5 -208.5q0 -239 348 -330q56 -15 97.5 -28t89.5 -33t82.5 -42t68 -53t54.5 -67.5t33.5 -85t12.5 -105.5q0 -77 -23.5 -147t-71.5 -129.5t-132.5 -96t-194.5 -38.5v-191h-69v193q-77 6 -142.5 28.5t-116 59.5t-86.5 75t-71 87z" />
<glyph unicode="%" horiz-adv-x="1419" d="M96 1108q0 105 31.5 188.5t100.5 137t167 53.5q146 0 224.5 -108.5t78.5 -270.5q0 -105 -32 -189.5t-101.5 -139t-167.5 -54.5t-167.5 54.5t-101.5 139t-32 189.5zM141 0l1061 1475h82l-1061 -1475h-82zM164 1104q0 -88 21.5 -158t75 -117t132.5 -47q59 0 105 26.5 t73 72.5t40.5 102.5t13.5 120.5q0 88 -21.5 159t-74.5 119t-132 48q-80 0 -134 -47.5t-76.5 -118.5t-22.5 -160zM721 365q0 162 77 270t222 108q99 0 169 -53t102 -136.5t32 -188.5t-32 -189.5t-101.5 -139t-167.5 -54.5t-167.5 54.5t-101.5 139t-32 189.5zM788 360 q0 -65 13 -121t39.5 -101.5t72 -72t105.5 -26.5q115 0 173 92.5t58 228.5q0 65 -12.5 121.5t-38.5 103.5t-71 74t-105 27q-80 0 -134.5 -47.5t-77 -118.5t-22.5 -160z" />
<glyph unicode="&#x26;" horiz-adv-x="1148" d="M94 414q0 154 77.5 249.5t203.5 135.5q-93 35 -151 118.5t-58 210.5q0 166 103.5 265.5t281.5 99.5q130 0 231.5 -60.5t137.5 -144.5l-52 -33q-47 89 -133 132t-188 43q-82 0 -144 -25.5t-97 -69.5t-51.5 -95.5t-16.5 -109.5q0 -127 74.5 -210t185.5 -91v-63 q-144 -8 -238 -98.5t-94 -251.5q0 -94 36 -168t96.5 -117.5t132.5 -65.5t151 -22q180 0 293.5 97.5t113.5 279.5q0 138 -76 233.5t-198 112.5v63h411v-63h-262q89 -49 143 -138.5t54 -201.5q0 -201 -134 -322.5t-341 -121.5q-97 0 -185 29t-157 82t-109.5 136.5t-40.5 184.5 z" />
<glyph unicode="'" horiz-adv-x="501" d="M205 1475h92l-23 -451h-47z" />
<glyph unicode="(" horiz-adv-x="757" d="M209 598q0 480 412 958l47 -38q-188 -229 -286.5 -448t-98.5 -472q0 -131 28.5 -253.5t85 -235.5t122 -210.5t157.5 -209.5l-47 -49q-197 228 -308.5 464t-111.5 494z" />
<glyph unicode=")" horiz-adv-x="757" d="M78 -315q91 111 157.5 209.5t122.5 212.5t84.5 237t28.5 254t-27 254t-81 237t-119.5 214.5t-155.5 212.5l53 40q406 -481 406 -958q0 -255 -111.5 -491t-306.5 -467z" />
<glyph unicode="*" horiz-adv-x="1093" d="M123 1149l12 47l389 -127v406h49v-406l388 127l12 -47l-385 -129l237 -326l-37 -32l-241 331l-240 -331l-37 32l238 326z" />
<glyph unicode="+" d="M172 651v64h315v317h70v-317h315v-64h-315v-317h-70v317h-315z" />
<glyph unicode="," horiz-adv-x="557" d="M154 -283l94 455h96l-147 -455h-43z" />
<glyph unicode="-" horiz-adv-x="655" d="M76 520v64h502v-64h-502z" />
<glyph unicode="." horiz-adv-x="618" d="M242 49q0 32 18 52t49 20q29 0 46.5 -20t17.5 -52q0 -29 -17.5 -47t-46.5 -18q-31 0 -49 18t-18 47z" />
<glyph unicode="/" horiz-adv-x="792" d="M0 0l723 1475h70l-723 -1475h-70z" />
<glyph unicode="0" horiz-adv-x="1271" d="M82 739q0 118 20.5 227t64.5 205.5t108 167.5t157 112.5t205 41.5t205 -41.5t157 -112.5t108 -167.5t64.5 -205.5t20.5 -227q0 -119 -20.5 -228t-65 -206t-109 -168.5t-158 -113t-206.5 -41.5t-205.5 41.5t-156 113t-106.5 169t-63 206t-20 227.5zM154 733 q0 -89 11.5 -171.5t34.5 -160.5t61.5 -141.5t90 -111.5t123 -74.5t156.5 -26.5q102 0 185.5 38t139 102t93.5 152.5t54.5 186.5t16.5 207q0 110 -16.5 208.5t-54 188.5t-93.5 155t-139.5 103.5t-187.5 38.5q-102 0 -184 -39t-135.5 -104t-89.5 -155.5t-51 -188.5t-15 -207z " />
<glyph unicode="1" horiz-adv-x="575" d="M96 1413l43 62h240v-1475h-70v1413h-213z" />
<glyph unicode="2" horiz-adv-x="966" d="M0 0v55q74 75 203 205q162 162 230.5 232t161.5 170.5t123.5 144t68 107t45.5 108.5t8 102q0 139 -101.5 221t-253.5 82q-133 0 -230 -76.5t-128 -199.5l-64 12q20 88 68 154.5t111.5 103.5t128.5 54.5t131 17.5q73 0 143 -22.5t130.5 -65.5t98 -116.5t37.5 -166.5 q0 -65 -16.5 -122t-64.5 -138t-140.5 -187.5t-238 -255t-363.5 -356.5h848v-63h-936z" />
<glyph unicode="3" horiz-adv-x="1036" d="M72 233l55 31q44 -73 92.5 -118t124 -72t178.5 -27q166 0 269.5 93t103.5 251q0 172 -111 255t-335 83h-99v64h94q182 0 294 87.5t112 235.5q0 147 -92 229t-238 82q-148 0 -243 -65.5t-130 -190.5l-63 15q33 141 152.5 224t273.5 83q116 0 207.5 -41t148 -127t56.5 -205 q0 -278 -304 -354q183 -35 266 -126t83 -243q0 -128 -61.5 -223.5t-162 -143.5t-225.5 -48q-163 0 -276 65.5t-170 185.5z" />
<glyph unicode="4" horiz-adv-x="935" d="M-27 324l758 1187v-1124h201v-63h-201v-324h-69v324h-689zM90 387h572v893z" />
<glyph unicode="5" horiz-adv-x="952" d="M29 246l61 16q35 -106 122 -161.5t198 -55.5q179 0 295 114.5t116 311.5q0 91 -24.5 164.5t-66 123.5t-98.5 84t-120.5 49t-134.5 15q-115 0 -252 -63l186 631h512v-64h-467l-137 -467q75 27 164 27q105 0 195.5 -30t161.5 -89t112 -156.5t41 -222.5q0 -223 -136.5 -357 t-344.5 -134q-137 0 -242.5 68.5t-140.5 195.5z" />
<glyph unicode="6" horiz-adv-x="1136" d="M74 502q0 53 8.5 104t20.5 93.5t37 92.5t45.5 85.5t60 90t65.5 88.5t76 97l254 322h82l-510 -648q74 91 155 130.5t187 39.5q228 0 368 -145.5t140 -362.5q0 -221 -132.5 -364t-352.5 -143q-73 0 -144.5 20.5t-136.5 64t-114.5 103.5t-79 146t-29.5 186zM143 489 q0 -192 119 -317t313 -125q188 0 303 124t115 314q0 188 -123 317.5t-317 129.5q-184 0 -297 -128t-113 -315z" />
<glyph unicode="7" horiz-adv-x="878" d="M27 1411v64h823l-598 -1475h-74l578 1411h-729z" />
<glyph unicode="8" horiz-adv-x="1011" d="M43 389q0 152 85 252t226 137q-114 38 -179.5 124t-65.5 210q0 172 111 276.5t286 104.5q173 0 284 -105.5t111 -275.5q0 -122 -66 -209t-178 -125q142 -37 227 -137t85 -254q0 -182 -130.5 -293.5t-330.5 -111.5q-205 0 -335 106t-130 301zM113 381q0 -155 110.5 -245.5 t276.5 -90.5q172 0 285.5 89t113.5 247q0 165 -111.5 263.5t-283.5 98.5q-170 0 -280.5 -99.5t-110.5 -262.5zM178 1126q0 -140 90 -226.5t232 -86.5q144 0 237.5 86.5t93.5 226.5q0 138 -92 221t-235 83q-142 0 -234 -83.5t-92 -220.5z" />
<glyph unicode="9" horiz-adv-x="1136" d="M74 985q0 220 132 363t353 143q92 0 180 -33t161.5 -95.5t118 -163.5t44.5 -226q0 -92 -18 -169.5t-67.5 -162t-86.5 -136t-123 -160.5q-12 -15 -18 -23l-254 -322h-82l508 645q-74 -90 -154.5 -129t-185.5 -39q-228 0 -368 145.5t-140 362.5zM143 989q0 -188 123.5 -317 t317.5 -129q184 0 296.5 127.5t112.5 314.5q0 192 -119 316t-313 124q-188 0 -303 -122.5t-115 -313.5z" />
<glyph unicode=":" horiz-adv-x="610" d="M242 49q0 32 18 52t49 20q29 0 46.5 -20t17.5 -52q0 -29 -17.5 -47t-46.5 -18q-31 0 -49 18t-18 47zM242 946q0 32 18 52t49 20q29 0 46.5 -20t17.5 -52q0 -29 -17.5 -47t-46.5 -18q-31 0 -49 18t-18 47z" />
<glyph unicode=";" horiz-adv-x="628" d="M190 -283l95 455h96l-148 -455h-43zM270 946q0 32 18.5 52t49.5 20q29 0 46 -19.5t17 -52.5q0 -29 -17 -47t-46 -18q-31 0 -49.5 18t-18.5 47z" />
<glyph unicode="&#x3c;" d="M174 655v56l696 352v-76l-626 -303l626 -305v-78z" />
<glyph unicode="=" d="M172 465v63h700v-63h-700zM172 838v63h700v-63h-700z" />
<glyph unicode="&#x3e;" d="M174 301v78l627 305l-627 303v76l696 -352v-56z" />
<glyph unicode="?" horiz-adv-x="1140" d="M133 1167q17 64 51 120.5t86.5 103.5t130.5 74.5t172 27.5q190 0 305 -107t115 -294q0 -101 -38.5 -183t-104 -134.5t-146.5 -83t-172 -36.5l-8 -321h-59l-10 381h26q205 0 322 104t117 273q0 158 -94.5 248t-254.5 90q-130 0 -230.5 -69t-147.5 -212zM428 49 q0 32 18.5 52t49.5 20q29 0 46 -19.5t17 -52.5q0 -29 -17 -47t-46 -18q-31 0 -49.5 18t-18.5 47z" />
<glyph unicode="@" horiz-adv-x="1970" d="M98 494q0 203 76 385t205 312.5t308 207t378 76.5q167 0 315.5 -56t262.5 -159.5t180.5 -264.5t66.5 -358q0 -124 -32.5 -241t-90 -209.5t-146 -148.5t-191.5 -56q-81 0 -131 53t-50 164h-6q-62 -102 -173.5 -159.5t-238.5 -57.5q-167 0 -262.5 120.5t-95.5 305.5 q0 175 70.5 319t200.5 228.5t294 84.5q134 0 221 -76.5t99 -209.5h6l57 278h78l-151 -731q-15 -88 -15 -115q0 -143 115 -143q96 0 181.5 81t137.5 219.5t52 295.5q0 173 -62 320.5t-166 245.5t-240 153t-284 55q-156 0 -297 -49t-248.5 -136.5t-187 -203t-121 -253.5 t-41.5 -284q0 -160 44 -298.5t123 -239.5t185 -173.5t232.5 -108.5t263.5 -36q169 0 283 29v-63q-144 -27 -285 -27q-125 0 -241.5 27t-219 78t-187 130.5t-145 180t-94 230.5t-33.5 278zM551 408q0 -166 78.5 -265.5t208.5 -99.5q214 0 350.5 164t136.5 416q0 166 -77 261 t-212 95q-213 0 -349 -160.5t-136 -410.5z" />
<glyph unicode="A" horiz-adv-x="1277" d="M10 0l629 1495l629 -1495h-72l-172 408h-774l-170 -408h-70zM276 471h721l-360 860z" />
<glyph unicode="B" horiz-adv-x="1046" d="M158 0v1475h250q505 0 505 -361q0 -132 -61.5 -218.5t-212.5 -125.5q164 -37 253 -129t89 -227q0 -414 -539 -414h-284zM227 63h209q106 0 187 16.5t134 45t86.5 71t47.5 91.5t14 110q0 336 -489 336h-189v-670zM227 797h166q128 0 217 22t138.5 65.5t70.5 99.5t21 132 q0 143 -98.5 219t-331.5 76h-183v-614z" />
<glyph unicode="C" horiz-adv-x="1150" d="M66 737q0 217 98 390t272 269.5t391 96.5q177 0 275 -66v-67q-100 70 -285 70q-198 0 -353 -90t-240 -248.5t-85 -358.5q0 -198 86 -354.5t241 -244t353 -87.5q69 0 106 2t92 14.5t97 38.5v-63q-41 -26 -94.5 -38.5t-89.5 -14.5t-103 -2q-164 0 -305.5 56t-241.5 154.5 t-157 239t-57 303.5z" />
<glyph unicode="D" horiz-adv-x="1396" d="M158 0v1475h340q192 0 350.5 -56.5t263.5 -156t162 -235.5t57 -294q0 -140 -42.5 -259t-117.5 -205.5t-177 -147.5t-222 -91t-252 -30h-362zM227 63h281q354 0 554 184t200 486q0 198 -95.5 352t-269 240t-397.5 86h-273v-1348z" />
<glyph unicode="E" horiz-adv-x="968" d="M158 0v1475h710v-64h-641v-602h531v-64h-531v-682h641v-63h-710z" />
<glyph unicode="F" horiz-adv-x="921" d="M158 0v1475h665v-64h-596v-666h478v-63h-478v-682h-69z" />
<glyph unicode="G" horiz-adv-x="1538" d="M66 737q0 217 95.5 390t266.5 269.5t387 96.5q310 0 516 -197l-45 -49q-198 183 -473 183q-199 0 -353.5 -92t-237.5 -252t-83 -361q0 -298 187.5 -488t484.5 -190q186 0 325.5 90.5t211 245.5t71.5 352h-618v64h680q6 -33 6 -97q0 -147 -49 -278.5t-136 -228.5 t-214.5 -154t-276.5 -57q-218 0 -388 95.5t-263.5 267t-93.5 390.5z" />
<glyph unicode="H" horiz-adv-x="1441" d="M158 0v1475h69v-660h987v660h70v-1475h-70v752h-987v-752h-69z" />
<glyph unicode="I" horiz-adv-x="385" d="M158 0v1475h69v-1475h-69z" />
<glyph unicode="J" horiz-adv-x="598" d="M29 20l28 58q64 -33 121 -33q88 0 140.5 47.5t52.5 136.5v1246h69v-1231q0 -123 -70.5 -191.5t-193.5 -68.5q-80 0 -147 36z" />
<glyph unicode="K" horiz-adv-x="1067" d="M158 0v1475h69v-725l693 725h84l-715 -750l772 -725h-100l-734 688v-688h-69z" />
<glyph unicode="L" horiz-adv-x="847" d="M158 0v1475h69v-1412h592v-63h-661z" />
<glyph unicode="M" horiz-adv-x="1687" d="M82 0l207 1495l563 -1147l551 1147l203 -1495h-70l-170 1274l-516 -1057l-528 1057l-170 -1274h-70z" />
<glyph unicode="N" horiz-adv-x="1525" d="M158 0v1495l1138 -1329v1309h70v-1495l-1139 1331v-1311h-69z" />
<glyph unicode="O" horiz-adv-x="1626" d="M66 737q0 161 56 301t154 239.5t237 156.5t300 57q215 0 386 -97t266.5 -269.5t95.5 -387.5q0 -216 -95.5 -387.5t-267 -268.5t-387.5 -97q-215 0 -385.5 97t-265 268.5t-94.5 387.5zM139 733q0 -198 83 -354t236 -244t349 -88q198 0 353 87.5t241 244t86 354.5 q0 199 -85.5 357t-241 247.5t-353.5 89.5q-197 0 -350 -89.5t-235.5 -247.5t-82.5 -357z" />
<glyph unicode="P" horiz-adv-x="1003" d="M158 0v1475h262q245 0 388.5 -114.5t143.5 -322.5q0 -112 -42 -198.5t-116.5 -141t-173.5 -82.5t-217 -28h-176v-588h-69zM227 651h183q228 0 348.5 103.5t120.5 281.5q0 174 -118.5 274.5t-326.5 100.5h-207v-760z" />
<glyph unicode="Q" horiz-adv-x="1626" d="M66 737q0 161 56 301t154 239.5t237 156.5t300 57q215 0 386 -97t266.5 -269.5t95.5 -387.5q0 -177 -63.5 -322.5t-180.5 -250.5l160 -170l-41 -45l-168 176q-193 -141 -457 -141q-215 0 -385.5 97t-265 268.5t-94.5 387.5zM139 733q0 -198 83 -354t236 -244t349 -88 q239 0 414 127l-250 264l45 47l254 -272q104 93 160.5 227t56.5 293q0 199 -85.5 357t-241 247.5t-353.5 89.5q-197 0 -350 -89.5t-235.5 -247.5t-82.5 -357z" />
<glyph unicode="R" horiz-adv-x="1034" d="M158 0v1475h262q235 0 373.5 -112t138.5 -310q0 -191 -110 -302t-304 -137l516 -614h-88l-510 608h-37h-172v-608h-69zM227 672h193q215 0 326.5 96.5t111.5 282.5q0 165 -113.5 262.5t-310.5 97.5h-207v-739z" />
<glyph unicode="S" horiz-adv-x="1075" d="M82 236l55 43q161 -232 402 -232q182 0 279 85.5t97 244.5q0 51 -9.5 92.5t-25 73.5t-42 58.5t-54.5 45t-69.5 36t-79 29.5t-90.5 27q-215 59 -315.5 152t-100.5 250q0 155 106 253.5t297 98.5q138 0 246 -56.5t176 -156.5l-53 -39q-77 102 -166 145.5t-213 43.5 q-158 0 -238.5 -82.5t-80.5 -208.5q0 -239 348 -330q56 -15 97.5 -28t89.5 -33t82.5 -42t68 -53t54.5 -67.5t33.5 -85t12.5 -105.5q0 -61 -14.5 -118.5t-47.5 -111t-82 -93.5t-123.5 -64t-166.5 -24q-90 0 -165.5 20.5t-132 59t-96 78.5t-79.5 94z" />
<glyph unicode="T" horiz-adv-x="1038" d="M10 1411v64h1018v-64h-471v-1411h-70v1411h-477z" />
<glyph unicode="U" horiz-adv-x="1345" d="M143 682v793h70v-795q0 -315 112 -474t343 -159q238 0 350 158.5t112 476.5v793h70v-793q0 -698 -532 -698q-268 0 -396.5 174.5t-128.5 523.5z" />
<glyph unicode="V" horiz-adv-x="1179" d="M10 1475h80l504 -1317l500 1317h75l-579 -1495z" />
<glyph unicode="W" horiz-adv-x="2236" d="M29 1475h80l536 -1301l488 1321l503 -1321l498 1301h74l-576 -1495l-502 1308l-485 -1308z" />
<glyph unicode="X" horiz-adv-x="1144" d="M0 0l530 750l-510 725h84l476 -674l471 674h73l-508 -727l529 -748h-84l-494 700l-491 -700h-76z" />
<glyph unicode="Y" horiz-adv-x="1077" d="M10 1475h78l451 -879l454 879h74l-494 -951v-524h-69v516z" />
<glyph unicode="Z" horiz-adv-x="1230" d="M29 0l1048 1411h-993v64h1118l-1036 -1412h981v-63h-1118z" />
<glyph unicode="[" horiz-adv-x="768" d="M262 -340v1876h414v-63h-344v-1749h344v-64h-414z" />
<glyph unicode="\" horiz-adv-x="792" d="M0 1475h70l723 -1475h-70z" />
<glyph unicode="]" horiz-adv-x="761" d="M92 -276h344v1749h-344v63h414v-1876h-414v64z" />
<glyph unicode="^" d="M178 944l309 592h70l309 -592h-73l-271 522l-270 -522h-74z" />
<glyph unicode="_" horiz-adv-x="964" d="M76 0h813v-57h-813v57z" />
<glyph unicode="`" horiz-adv-x="1234" d="M414 1430l47 49l336 -279l-37 -47z" />
<glyph unicode="a" horiz-adv-x="1202" d="M59 516q0 143 65 264t181.5 192.5t257.5 71.5q143 0 253 -65.5t171 -192.5h6v242h70v-1028h-70v248h-6q-147 -264 -426 -264q-138 0 -253.5 70.5t-182 193t-66.5 268.5zM131 514q0 -202 122 -334.5t306 -132.5q188 0 311 132.5t123 334.5q0 201 -123.5 335t-310.5 134 q-183 0 -305.5 -134t-122.5 -335z" />
<glyph unicode="b" horiz-adv-x="1208" d="M145 0v1413h70v-631h6q67 126 174 194t246 68q142 0 259 -71.5t183 -192.5t66 -264q0 -146 -67 -269t-184.5 -194t-258.5 -71q-140 0 -251.5 70.5t-168.5 193.5h-4v-246h-70zM215 514q0 -203 121 -338t305 -135q188 0 312 135t124 338q0 202 -124 335.5t-312 133.5 q-184 0 -305 -134t-121 -335z" />
<glyph unicode="c" horiz-adv-x="911" d="M61 522q0 228 142.5 375t380.5 147q175 0 280 -57v-76q-121 72 -282 72q-212 0 -330.5 -128t-118.5 -331q0 -214 130.5 -347.5t332.5 -133.5q153 0 278 61v-65q-111 -57 -278 -57q-150 0 -271.5 68t-192.5 192t-71 280z" />
<glyph unicode="d" horiz-adv-x="1204" d="M59 516q0 143 65 264t180.5 192.5t256.5 71.5q147 0 259 -67t169 -191h6v627h70v-1413h-70v248h-6q-76 -132 -180 -199t-252 -67q-212 0 -355 155t-143 379zM131 514q0 -202 122.5 -336.5t305.5 -134.5q189 0 312.5 134t123.5 337q0 202 -123.5 335.5t-312.5 133.5 q-183 0 -305.5 -134t-122.5 -335z" />
<glyph unicode="e" horiz-adv-x="1052" d="M61 520q0 226 130.5 375t338.5 149q110 0 199 -45t141 -116.5t79.5 -153t27.5 -162.5q0 -21 -4 -49h-840q0 -204 109.5 -339.5t294.5 -135.5q136 0 228.5 70.5t133.5 210.5l64 -17q-34 -118 -103.5 -193t-149 -103.5t-175.5 -28.5q-142 0 -251 73t-166 195t-57 270z M135 578h772q-13 173 -114.5 289t-266.5 116q-166 0 -270 -109.5t-121 -295.5z" />
<glyph unicode="f" horiz-adv-x="565" d="M-8 965v61h168v80q0 162 75.5 243t208.5 81q57 0 101 -15v-63q-43 16 -117 16q-97 0 -148 -66.5t-51 -185.5v-90h318v-61h-318v-965h-69v965h-168z" />
<glyph unicode="g" horiz-adv-x="1167" d="M61 530q0 142 64.5 260.5t175 186t240.5 67.5q283 0 409 -262h6v246h70v-911q0 -143 -36 -250t-102 -171t-153.5 -95t-197.5 -31q-268 0 -426 203l51 47q148 -189 377 -189q70 0 128.5 14.5t113 51t92.5 93t60.5 145.5t22.5 204v152h-6q-124 -273 -409 -273 q-99 0 -188.5 40t-153 108.5t-101 163.5t-37.5 200zM133 530q0 -192 118.5 -321t289.5 -129q177 0 296 128.5t119 321.5q0 196 -118.5 324.5t-296.5 128.5q-172 0 -290 -129t-118 -324z" />
<glyph unicode="h" horiz-adv-x="1097" d="M139 0v1413h70v-592h6q48 113 136 168t231 55q86 0 154 -24t113 -66t75 -102.5t42.5 -129.5t12.5 -151v-571h-70v608q0 80 -19 146t-58.5 118t-106.5 81.5t-156 29.5q-177 0 -268.5 -104.5t-91.5 -292.5v-586h-70z" />
<glyph unicode="i" horiz-adv-x="350" d="M109 1290q0 32 18 52t49 20q29 0 46.5 -20t17.5 -52q0 -29 -17.5 -47t-46.5 -18q-31 0 -49 18t-18 47zM139 0v1026h70v-1026h-70z" />
<glyph unicode="j" horiz-adv-x="350" d="M-150 -406l19 56q74 -19 108 -19q73 0 117.5 50t44.5 153v1192h70v-1204q0 -125 -64 -188.5t-172 -63.5q-77 0 -123 24zM109 1290q0 32 18 52t49 20q29 0 46.5 -20t17.5 -52q0 -29 -17.5 -47t-46.5 -18q-31 0 -49 18t-18 47z" />
<glyph unicode="k" horiz-adv-x="866" d="M143 0v1413h70v-842l483 455h88l-528 -498l580 -528h-93l-530 477v-477h-70z" />
<glyph unicode="l" horiz-adv-x="348" d="M139 0v1413h70v-1413h-70z" />
<glyph unicode="m" horiz-adv-x="1798" d="M139 0v1026h68v-205h4q96 223 346 223q280 0 361 -258h4q36 119 134 188.5t222 69.5q87 0 155.5 -24t114 -66t75.5 -102.5t43 -129.5t13 -151v-571h-69v604q0 79 -18.5 146t-56.5 120t-102 83t-149 30q-163 0 -247 -101.5t-89 -289.5v-14v-578h-69v604q0 79 -19 146 t-57 120t-102.5 83t-149.5 30q-166 0 -254 -106.5t-88 -298.5v-578h-70z" />
<glyph unicode="n" horiz-adv-x="1097" d="M139 0v1026h70v-205h4q91 223 367 223q105 0 183.5 -36t125 -102t68.5 -149.5t22 -185.5v-571h-70v608q0 80 -19 146t-58.5 118t-106.5 81.5t-156 29.5q-177 0 -268.5 -104.5t-91.5 -292.5v-586h-70z" />
<glyph unicode="o" horiz-adv-x="1128" d="M59 514q0 226 145 378t357 152q213 0 360.5 -152.5t147.5 -375.5q0 -227 -146.5 -380.5t-361.5 -153.5q-138 0 -253 69.5t-182 192t-67 270.5zM131 514q0 -126 56 -234t155.5 -172.5t218.5 -64.5q123 0 223.5 64t156.5 171.5t56 235.5q0 127 -56 234.5t-156.5 171 t-223.5 63.5q-181 0 -305.5 -137.5t-124.5 -331.5z" />
<glyph unicode="p" horiz-adv-x="1202" d="M139 -410v1436h70v-244h6q67 126 174 194t246 68q142 0 259 -71.5t183 -192.5t66 -264q0 -146 -67 -269t-184.5 -194t-258.5 -71q-140 0 -251.5 70.5t-168.5 193.5h-4v-656h-70zM209 514q0 -203 121 -338t305 -135q188 0 312 135t124 338q0 202 -123.5 335.5 t-312.5 133.5q-184 0 -305 -134t-121 -335z" />
<glyph unicode="q" horiz-adv-x="1208" d="M59 516q0 143 65 264t181.5 192.5t257.5 71.5q143 0 253 -65.5t171 -192.5h6v240h70v-1436h-70v658h-6q-147 -264 -426 -264q-138 0 -253.5 70.5t-182 193t-66.5 268.5zM131 514q0 -202 122 -334.5t306 -132.5q188 0 311 132.5t123 334.5q0 201 -123.5 335t-310.5 134 q-183 0 -305.5 -134t-122.5 -335z" />
<glyph unicode="r" horiz-adv-x="612" d="M139 0v1026h68v-201h4q90 219 360 219v-61q-187 0 -274.5 -102t-87.5 -283v-598h-70z" />
<glyph unicode="s" horiz-adv-x="800" d="M94 231l62 19q19 -52 37.5 -85.5t48.5 -63.5t74.5 -44t105.5 -14q91 0 154 66t63 151q0 101 -54 156.5t-194 111.5q-127 47 -193.5 109t-66.5 168q0 103 78.5 171t189.5 68q114 0 189 -57.5t98 -165.5l-61 -20q-19 77 -76.5 129.5t-149.5 52.5q-90 0 -144 -51t-54 -125 q0 -72 50.5 -122.5t166.5 -94.5q49 -21 78 -34t64 -32t55 -35.5t40.5 -40t30.5 -50t16.5 -60.5t6.5 -76q0 -117 -83.5 -198.5t-211.5 -81.5q-254 0 -320 249z" />
<glyph unicode="t" horiz-adv-x="559" d="M41 965v61h176v305h70v-305h252v-61h-252v-965h-70v965h-176z" />
<glyph unicode="u" horiz-adv-x="1042" d="M119 428v598h69v-606q0 -163 87.5 -270t246.5 -107q105 0 181.5 51.5t113.5 136t37 189.5v606h70v-590q0 -126 -46.5 -227.5t-140.5 -164t-221 -62.5q-186 0 -291.5 126.5t-105.5 319.5z" />
<glyph unicode="v" horiz-adv-x="921" d="M25 1026h73l365 -889l364 889h68l-436 -1046z" />
<glyph unicode="w" horiz-adv-x="1470" d="M47 1026h72l258 -852l366 873l361 -873l248 852h67l-309 -1046l-371 897l-374 -897z" />
<glyph unicode="x" horiz-adv-x="931" d="M27 0l395 526l-375 500h86l338 -448l334 448h80l-377 -498l397 -528h-84l-358 475l-359 -475h-77z" />
<glyph unicode="y" horiz-adv-x="894" d="M18 1026h80l391 -819l328 819h76l-571 -1436h-74l207 525z" />
<glyph unicode="z" horiz-adv-x="765" d="M29 0l594 965h-574v61h688l-592 -965h572v-61h-688z" />
<glyph unicode="{" horiz-adv-x="778" d="M166 563v70q205 0 205 176v350q0 199 62.5 282t238.5 115l14 -53q-140 -20 -193 -87t-53 -210v-356q0 -240 -194 -252q194 -12 194 -252v-356q0 -143 53 -210t193 -87l-14 -53q-175 29 -238 114t-63 283v350q0 176 -205 176z" />
<glyph unicode="|" horiz-adv-x="622" d="M276 -471v2048h70v-2048h-70z" />
<glyph unicode="}" horiz-adv-x="778" d="M92 -307q140 20 193 87t53 210v356q0 240 194 252q-194 12 -194 252v356q0 143 -53 210t-193 87l14 53q176 -32 239 -115t63 -282v-350q0 -176 204 -176v-70q-204 0 -204 -176v-350q0 -197 -63.5 -282.5t-238.5 -114.5z" />
<glyph unicode="~" d="M180 651q90 127 189 127q48 0 106.5 -26t113 -52t93.5 -26q75 0 143 88l39 -25q-88 -127 -188 -127q-39 0 -84 16t-79 35.5t-76 35.5t-75 16q-76 0 -143 -86z" />
<glyph unicode="&#xa1;" horiz-adv-x="495" d="M178 973q0 32 18.5 51.5t49.5 19.5q29 0 46 -19.5t17 -51.5q0 -30 -17 -48t-46 -18q-31 0 -49.5 18.5t-18.5 47.5zM213 -449l10 1141h49l11 -1141h-70z" />
<glyph unicode="&#xa2;" horiz-adv-x="931" d="M61 752q0 213 127.5 358.5t350.5 169.5v195h69v-189h19q128 0 258 -57v-80q-133 72 -283 72q-147 0 -255 -64.5t-161 -169t-53 -233.5q0 -229 134 -361.5t349 -132.5q148 0 279 64v-68q-119 -61 -279 -61h-8v-195h-69v199q-209 25 -343.5 177t-134.5 376z" />
<glyph unicode="&#xa3;" horiz-adv-x="1032" d="M61 0v63h164v523h-164v63h164v408q0 105 33 189t88.5 136t124 79.5t143.5 27.5q310 0 392 -307l-60 -13q-32 122 -115 189t-215 67q-140 0 -230.5 -94t-90.5 -280v-402h383v-63h-383v-523h727v-63h-961z" />
<glyph unicode="&#xa4;" horiz-adv-x="1196" d="M133 315l141 142q-86 113 -86 268q0 152 84 262l-139 143l57 58l136 -141q116 106 274 106q153 0 266 -104l140 139l57 -58l-141 -139q88 -118 88 -266q0 -152 -90 -270l143 -140l-57 -59l-142 141q-112 -98 -264 -98q-156 0 -270 100l-140 -143zM260 723 q0 -165 95 -261.5t245 -96.5q148 0 243 97t95 261q0 163 -95.5 263.5t-242.5 100.5q-149 0 -244.5 -100t-95.5 -264z" />
<glyph unicode="&#xa5;" horiz-adv-x="995" d="M10 1475h80l412 -816l407 816h76l-442 -871h272v-63h-278v-236h278v-63h-278v-242h-70v242h-285v63h285v236h-285v63h275z" />
<glyph unicode="&#xa6;" horiz-adv-x="622" d="M276 389h70v-860h-70v860zM276 713v864h70v-864h-70z" />
<glyph unicode="&#xa7;" horiz-adv-x="952" d="M94 195l74 16q22 -95 91 -154t185 -59q129 0 202 56.5t73 154.5q0 109 -67.5 165t-211.5 93q-325 78 -325 311q0 104 56 176t146 103q-157 77 -157 241q0 115 79.5 186.5t217.5 71.5q156 0 241 -75.5t107 -200.5l-60 -14q-30 120 -96.5 173.5t-193.5 53.5 q-116 0 -170 -56t-54 -141q0 -90 63 -144t198 -85q80 -19 136.5 -41.5t106.5 -59.5t75.5 -95.5t25.5 -137.5q0 -100 -57 -167t-150 -93q162 -83 162 -252q0 -123 -90 -205t-255 -82q-135 0 -228.5 70.5t-123.5 190.5zM186 784q0 -99 67.5 -155.5t209.5 -93.5q39 -9 96 -31 q92 22 148.5 78t56.5 149q0 117 -74 178.5t-221 96.5q-39 7 -84 22q-91 -23 -145 -90t-54 -154z" />
<glyph unicode="&#xa8;" horiz-adv-x="1234" d="M420 1290q0 32 18 52t49 20q29 0 46.5 -20t17.5 -52q0 -29 -17.5 -47t-46.5 -18q-31 0 -49 18t-18 47zM684 1290q0 32 18.5 52t49.5 20q29 0 46 -19.5t17 -52.5q0 -29 -17 -47t-46 -18q-31 0 -49.5 18t-18.5 47z" />
<glyph unicode="&#xa9;" horiz-adv-x="1976" d="M106 737q0 260 112.5 465t314 319.5t456.5 114.5t455.5 -114.5t312 -319.5t111.5 -465t-111.5 -465t-312 -319.5t-455.5 -114.5t-456.5 114.5t-314 319.5t-112.5 465zM178 733q0 -179 59 -332.5t163.5 -263.5t255.5 -172.5t329 -62.5q238 0 424 106t288.5 295.5 t102.5 429.5q0 180 -60 335.5t-166 266.5t-258.5 174.5t-330.5 63.5t-329.5 -63.5t-256 -175t-163 -267t-58.5 -334.5zM518 737q0 230 151.5 378.5t383.5 148.5q122 0 196 -41v-88q-75 51 -200 51q-197 0 -322 -125.5t-125 -327.5q0 -201 124.5 -324.5t320.5 -123.5 q137 0 210 43v-80q-43 -26 -88.5 -33.5t-115.5 -7.5q-238 0 -386.5 147t-148.5 383z" />
<glyph unicode="&#xaa;" horiz-adv-x="878" d="M49 1104q0 163 104.5 275t268.5 112q187 0 274 -164h4v148h70v-746h-70v162h-4q-83 -176 -274 -176q-165 0 -269 110.5t-104 278.5zM121 1102q0 -146 82 -237t207 -91q128 0 209 90.5t81 237.5q0 150 -80 237.5t-210 87.5q-126 0 -207.5 -88t-81.5 -237z" />
<glyph unicode="&#xab;" horiz-adv-x="1054" d="M190 559l273 408l47 -37l-229 -371l229 -373l-47 -36zM528 559l273 408l53 -37l-236 -371l236 -373l-53 -36z" />
<glyph unicode="&#xac;" d="M172 786v64h700v-420h-63v356h-637z" />
<glyph unicode="&#xad;" horiz-adv-x="665" />
<glyph unicode="&#xae;" horiz-adv-x="1503" d="M125 1090q0 185 81 335t225 235t321 85q178 0 322 -85t225 -235t81 -335q0 -186 -80.5 -336.5t-224.5 -236t-325 -85.5q-177 0 -320.5 85.5t-224 236t-80.5 336.5zM188 1090q0 -264 159.5 -433.5t402.5 -169.5q160 0 288.5 76.5t202.5 214.5t74 312q0 262 -160 431 t-403 169t-403.5 -169t-160.5 -431zM551 737v738h180q116 0 186 -57.5t70 -164.5q0 -168 -158 -219l205 -297h-84l-192 283q-16 -2 -51 -2h-86v-281h-70zM621 1083h94q91 0 145.5 43t54.5 127q0 77 -52 115.5t-140 38.5h-102v-324z" />
<glyph unicode="&#xaf;" horiz-adv-x="1234" d="M342 1243v64h551v-64h-551z" />
<glyph unicode="&#xb0;" horiz-adv-x="788" d="M133 1235q0 115 73 187.5t189 72.5t189 -72.5t73 -187.5t-73.5 -188.5t-188.5 -73.5t-188.5 73.5t-73.5 188.5zM190 1235q0 -94 55 -152.5t148 -58.5q97 0 153 58.5t56 152.5q0 95 -56 152t-153 57q-93 0 -148 -57.5t-55 -151.5z" />
<glyph unicode="&#xb1;" d="M172 0v63h700v-63h-700zM172 651v64h315v317h70v-317h315v-64h-315v-317h-70v317h-315z" />
<glyph unicode="&#xb2;" horiz-adv-x="555" d="M25 737v62l46 46q216 211 271 276q75 90 80 156v11q0 59 -41 96t-105 37q-125 0 -180 -141l-61 23q26 87 91.5 135.5t152.5 48.5q95 -2 155 -54.5t60 -146.5q0 -44 -16.5 -83.5t-64 -96t-110 -119.5t-176.5 -173q-3 -3 -5 -4.5t-4.5 -4l-4.5 -4.5h397v-64h-485z" />
<glyph unicode="&#xb3;" horiz-adv-x="555" d="M45 872l59 31q52 -110 191 -110q79 0 124.5 44.5t45.5 110.5q0 65 -51.5 102t-132.5 37h-78v64h76q75 0 121 37t46 98q0 62 -41 99.5t-114 37.5q-69 0 -113.5 -33t-62.5 -87l-62 22q23 74 84.5 118.5t145.5 45.5q117 0 176 -57.5t59 -145.5q0 -116 -129 -162 q148 -39 148 -178q0 -102 -74.5 -161.5t-173.5 -59.5q-181 0 -244 147z" />
<glyph unicode="&#xb4;" horiz-adv-x="1234" d="M438 1200l336 279l47 -49l-346 -277z" />
<glyph unicode="&#xb5;" horiz-adv-x="1062" d="M133 -410v1436h70v-606q0 -163 89.5 -270t250.5 -107q105 0 181.5 51.5t113 135.5t36.5 190v606h70v-590q0 -126 -46 -227.5t-140 -164t-221 -62.5q-229 0 -334 198v-590h-70z" />
<glyph unicode="&#xb6;" horiz-adv-x="1204" d="M135 983q0 101 36.5 190.5t102 156.5t165.5 106t220 39h70v-1475h-72v475q-143 0 -262.5 65t-189.5 182t-70 261zM811 0v1475h72v-1475h-72z" />
<glyph unicode="&#xb7;" horiz-adv-x="1234" d="M551 729q0 32 18 52t49 20q29 0 46.5 -20t17.5 -52q0 -29 -17.5 -47t-46.5 -18q-31 0 -49 18t-18 47z" />
<glyph unicode="&#xb8;" horiz-adv-x="1234" d="M567 -276l144 296h73l-149 -296h-68z" />
<glyph unicode="&#xb9;" horiz-adv-x="555" d="M150 1411l32 64h152v-738h-70v674h-114z" />
<glyph unicode="&#xba;" horiz-adv-x="823" d="M41 1104q0 164 106.5 275.5t264.5 111.5q159 0 265.5 -111t106.5 -276q0 -166 -106.5 -277.5t-265.5 -111.5q-158 0 -264.5 111.5t-106.5 277.5zM113 1102q0 -145 85.5 -236.5t211.5 -91.5q130 0 216.5 91.5t86.5 236.5q0 146 -86.5 235.5t-216.5 89.5q-127 0 -212 -88.5 t-85 -236.5z" />
<glyph unicode="&#xbb;" horiz-adv-x="1054" d="M201 186l235 373l-235 371l53 37l272 -408l-272 -409zM545 186l229 373l-229 371l47 37l272 -408l-272 -409z" />
<glyph unicode="&#xbc;" horiz-adv-x="1480" d="M150 1411l32 64h152v-738h-70v674h-114zM193 0l1060 1475h76l-1057 -1475h-79zM858 150l395 587h11v-524h79v-63h-79v-150h-70v150h-336zM971 213h223v334z" />
<glyph unicode="&#xbd;" horiz-adv-x="1480" d="M139 0l1061 1475h76l-1057 -1475h-80zM150 1411l32 64h152v-738h-70v674h-114zM860 0v61l1 1l1 1l1 1l1 1l1 1l1 1l1 1l1 1l1 1l1 1l1 1l1 1l1 1l1 1l1 1l1 1l1 1l1 1l1 1l1 1l1 1l1 1l2 1l1 1l1 1l1 1l1 1l1 1l1 1l1 1l1 1l1 1l1 1l1 1l1 1l1 1l1 1l2 2q219 214 275 281 q77 91 82 158v12q0 59 -40.5 96t-104.5 37q-125 0 -180 -141l-62 22q26 87 91.5 136t152.5 49q95 -2 155 -54.5t60 -146.5q0 -44 -17.5 -85.5t-63 -95.5t-114.5 -123.5t-179 -175.5q-5 -4 -7 -6h398v-63h-486z" />
<glyph unicode="&#xbe;" horiz-adv-x="1480" d="M45 872l59 31q52 -110 191 -110q79 0 124.5 44.5t45.5 110.5q0 65 -51.5 102t-132.5 37h-78v64h76q75 0 121 37t46 98q0 62 -41 99.5t-114 37.5q-69 0 -113.5 -33t-62.5 -87l-62 22q23 74 84.5 118.5t145.5 45.5q117 0 176 -57.5t59 -145.5q0 -116 -129 -162 q148 -39 148 -178q0 -102 -74.5 -161.5t-173.5 -59.5q-181 0 -244 147zM221 0l1061 1475h76l-1057 -1475h-80zM858 150l395 587h11v-524h79v-63h-79v-150h-70v150h-336zM971 213h223v334z" />
<glyph unicode="&#xbf;" horiz-adv-x="1140" d="M150 -66q0 101 38.5 183t103.5 134.5t146 83t172 36.5l8 321h60l10 -381h-26q-205 0 -322 -104t-117 -273q0 -158 94 -247.5t254 -89.5q132 0 232 67.5t147 212.5l60 -18q-17 -64 -51.5 -120.5t-87 -103.5t-130.5 -74.5t-172 -27.5q-190 0 -304.5 107t-114.5 294z M580 973q0 32 18 51.5t49 19.5q29 0 46.5 -19.5t17.5 -51.5q0 -29 -17.5 -47.5t-46.5 -18.5q-31 0 -49 18.5t-18 47.5z" />
<glyph unicode="&#xc0;" horiz-adv-x="1277" d="M10 0l629 1495l629 -1495h-72l-172 408h-774l-170 -408h-70zM276 471h721l-360 860zM434 1876l47 49l336 -278l-37 -48z" />
<glyph unicode="&#xc1;" horiz-adv-x="1277" d="M10 0l629 1495l629 -1495h-72l-172 408h-774l-170 -408h-70zM276 471h721l-360 860zM459 1647l336 278l47 -49l-346 -277z" />
<glyph unicode="&#xc2;" horiz-adv-x="1277" d="M10 0l629 1495l629 -1495h-72l-172 408h-774l-170 -408h-70zM276 471h721l-360 860zM326 1647l313 278l313 -278l-41 -48l-272 236l-272 -236z" />
<glyph unicode="&#xc3;" horiz-adv-x="1277" d="M10 0l629 1495l629 -1495h-72l-172 408h-774l-170 -408h-70zM276 471h721l-360 860zM276 1696q48 79 98.5 124.5t112.5 45.5q39 0 81 -23.5t72 -51.5t67.5 -51.5t68.5 -23.5q75 0 152 125l47 -31q-95 -159 -207 -159q-41 0 -82.5 23t-70.5 50.5t-65 50.5t-67 23 q-49 0 -81 -32t-76 -103z" />
<glyph unicode="&#xc4;" horiz-adv-x="1277" d="M10 0l629 1495l629 -1495h-72l-172 408h-774l-170 -408h-70zM276 471h721l-360 860zM440 1737q0 32 18.5 51.5t49.5 19.5q29 0 46 -19.5t17 -51.5q0 -30 -17 -48t-46 -18q-31 0 -49.5 18.5t-18.5 47.5zM705 1737q0 32 18 51.5t49 19.5q29 0 46.5 -19.5t17.5 -51.5 q0 -29 -17.5 -47.5t-46.5 -18.5q-30 0 -48.5 18.5t-18.5 47.5z" />
<glyph unicode="&#xc5;" horiz-adv-x="1277" d="M10 0l629 1495l629 -1495h-72l-172 408h-774l-170 -408h-70zM276 471h721l-360 860zM428 1788q0 86 61.5 147.5t147.5 61.5t146.5 -61.5t60.5 -147.5t-60.5 -146.5t-146.5 -60.5t-147.5 60.5t-61.5 146.5zM494 1788q0 -62 41.5 -105t101.5 -43q59 0 99 43t40 105 q0 66 -39.5 107.5t-99.5 41.5q-61 0 -102 -42t-41 -107z" />
<glyph unicode="&#xc6;" horiz-adv-x="1796" d="M18 0l924 1475h754v-64h-641v-602h530v-64h-530v-682h641v-63h-711v434h-620l-271 -434h-76zM403 498h582v929z" />
<glyph unicode="&#xc7;" horiz-adv-x="1150" d="M70 737q0 217 97 390t270 269.5t390 96.5q177 0 275 -66v-67q-100 70 -285 70q-198 0 -353 -90t-240 -248.5t-85 -358.5q0 -198 86 -354.5t241 -244t353 -87.5q69 0 106 2t92 14.5t97 38.5v-63q-41 -26 -94.5 -38.5t-89.5 -14.5t-103 -2q-29 0 -43 2l-129 -262h-69 l129 268q-289 37 -467 240t-178 505z" />
<glyph unicode="&#xc8;" horiz-adv-x="968" d="M158 0v1475h710v-64h-641v-602h531v-64h-531v-682h641v-63h-710zM311 1876l47 49l336 -278l-37 -48z" />
<glyph unicode="&#xc9;" horiz-adv-x="968" d="M158 0v1475h710v-64h-641v-602h531v-64h-531v-682h641v-63h-710zM336 1647l336 278l47 -49l-346 -277z" />
<glyph unicode="&#xca;" horiz-adv-x="968" d="M158 0v1475h710v-64h-641v-602h531v-64h-531v-682h641v-63h-710zM203 1647l313 278l313 -278l-41 -48l-272 236l-272 -236z" />
<glyph unicode="&#xcb;" horiz-adv-x="968" d="M158 0v1475h710v-64h-641v-602h531v-64h-531v-682h641v-63h-710zM317 1737q0 32 18.5 51.5t49.5 19.5q29 0 46.5 -19.5t17.5 -51.5q0 -29 -17.5 -47.5t-46.5 -18.5q-31 0 -49.5 18.5t-18.5 47.5zM582 1737q0 32 18 51.5t49 19.5q29 0 46.5 -19.5t17.5 -51.5 q0 -29 -17.5 -47.5t-46.5 -18.5q-31 0 -49 18.5t-18 47.5z" />
<glyph unicode="&#xcc;" horiz-adv-x="385" d="M-10 1876l47 49l336 -278l-37 -48zM158 0v1475h69v-1475h-69z" />
<glyph unicode="&#xcd;" horiz-adv-x="385" d="M14 1647l336 278l47 -49l-346 -277zM158 0v1475h69v-1475h-69z" />
<glyph unicode="&#xce;" horiz-adv-x="385" d="M-119 1647l314 278l313 -278l-41 -48l-272 236l-273 -236zM158 0v1475h69v-1475h-69z" />
<glyph unicode="&#xcf;" horiz-adv-x="385" d="M-4 1737q0 32 18 51.5t49 19.5q29 0 46.5 -19.5t17.5 -51.5q0 -29 -17.5 -47.5t-46.5 -18.5q-31 0 -49 18.5t-18 47.5zM158 0v1475h69v-1475h-69zM260 1737q0 32 18.5 51.5t49.5 19.5q29 0 46 -19.5t17 -51.5q0 -30 -17 -48t-46 -18q-31 0 -49.5 18.5t-18.5 47.5z" />
<glyph unicode="&#xd0;" horiz-adv-x="1396" d="M10 754v63h148v658h340q192 0 350.5 -56.5t263.5 -156t162 -235.5t57 -294q0 -140 -42.5 -259t-117.5 -205.5t-177 -147.5t-222 -91t-252 -30h-362v754h-148zM227 63h281q354 0 554 184t200 486q0 198 -95.5 352t-269 240t-397.5 86h-273v-594h467v-63h-467v-691z" />
<glyph unicode="&#xd1;" horiz-adv-x="1525" d="M158 0v1495l1138 -1329v1309h70v-1495l-1139 1331v-1311h-69zM399 1696q48 79 98.5 124.5t112.5 45.5q39 0 81 -23.5t72 -51.5t67.5 -51.5t68.5 -23.5q75 0 152 125l47 -31q-95 -159 -207 -159q-41 0 -82.5 23t-70.5 50.5t-65 50.5t-67 23q-49 0 -81 -32t-76 -103z" />
<glyph unicode="&#xd2;" horiz-adv-x="1626" d="M66 737q0 161 56 301t154 239.5t237 156.5t300 57q215 0 386 -97t266.5 -269.5t95.5 -387.5q0 -216 -95.5 -387.5t-267 -268.5t-387.5 -97q-215 0 -385.5 97t-265 268.5t-94.5 387.5zM139 733q0 -198 83 -354t236 -244t349 -88q198 0 353 87.5t241 244t86 354.5 q0 199 -85.5 357t-241 247.5t-353.5 89.5q-197 0 -350 -89.5t-235.5 -247.5t-82.5 -357zM608 1876l47 49l336 -278l-37 -48z" />
<glyph unicode="&#xd3;" horiz-adv-x="1626" d="M66 737q0 161 56 301t154 239.5t237 156.5t300 57q215 0 386 -97t266.5 -269.5t95.5 -387.5q0 -216 -95.5 -387.5t-267 -268.5t-387.5 -97q-215 0 -385.5 97t-265 268.5t-94.5 387.5zM139 733q0 -198 83 -354t236 -244t349 -88q198 0 353 87.5t241 244t86 354.5 q0 199 -85.5 357t-241 247.5t-353.5 89.5q-197 0 -350 -89.5t-235.5 -247.5t-82.5 -357zM633 1647l336 278l47 -49l-346 -277z" />
<glyph unicode="&#xd4;" horiz-adv-x="1626" d="M66 737q0 161 56 301t154 239.5t237 156.5t300 57q215 0 386 -97t266.5 -269.5t95.5 -387.5q0 -216 -95.5 -387.5t-267 -268.5t-387.5 -97q-215 0 -385.5 97t-265 268.5t-94.5 387.5zM139 733q0 -198 83 -354t236 -244t349 -88q198 0 353 87.5t241 244t86 354.5 q0 199 -85.5 357t-241 247.5t-353.5 89.5q-197 0 -350 -89.5t-235.5 -247.5t-82.5 -357zM500 1647l313 278l313 -278l-41 -48l-272 236l-272 -236z" />
<glyph unicode="&#xd5;" horiz-adv-x="1626" d="M66 737q0 161 56 301t154 239.5t237 156.5t300 57q215 0 386 -97t266.5 -269.5t95.5 -387.5q0 -216 -95.5 -387.5t-267 -268.5t-387.5 -97q-215 0 -385.5 97t-265 268.5t-94.5 387.5zM139 733q0 -198 83 -354t236 -244t349 -88q198 0 353 87.5t241 244t86 354.5 q0 199 -85.5 357t-241 247.5t-353.5 89.5q-197 0 -350 -89.5t-235.5 -247.5t-82.5 -357zM451 1696q48 79 98.5 124.5t112.5 45.5q39 0 81 -23.5t72 -51.5t67 -51.5t68 -23.5q75 0 152 125l47 -31q-95 -159 -207 -159q-41 0 -82.5 23t-70.5 50.5t-65 50.5t-67 23 q-49 0 -81 -32t-76 -103z" />
<glyph unicode="&#xd6;" horiz-adv-x="1626" d="M66 737q0 161 56 301t154 239.5t237 156.5t300 57q215 0 386 -97t266.5 -269.5t95.5 -387.5q0 -216 -95.5 -387.5t-267 -268.5t-387.5 -97q-215 0 -385.5 97t-265 268.5t-94.5 387.5zM139 733q0 -198 83 -354t236 -244t349 -88q198 0 353 87.5t241 244t86 354.5 q0 199 -85.5 357t-241 247.5t-353.5 89.5q-197 0 -350 -89.5t-235.5 -247.5t-82.5 -357zM614 1737q0 32 18.5 51.5t49.5 19.5q29 0 46 -19.5t17 -51.5q0 -30 -17 -48t-46 -18q-31 0 -49.5 18.5t-18.5 47.5zM879 1737q0 32 18 51.5t49 19.5q29 0 46.5 -19.5t17.5 -51.5 q0 -29 -17.5 -47.5t-46.5 -18.5q-30 0 -48.5 18.5t-18.5 47.5z" />
<glyph unicode="&#xd7;" d="M209 414l266 268l-266 268l47 47l266 -268l269 268l47 -47l-269 -268l267 -266l-48 -47l-266 266l-266 -266z" />
<glyph unicode="&#xd8;" horiz-adv-x="1624" d="M66 737q0 161 56 301t154 239.5t237 156.5t300 57q248 0 440 -131l111 137l51 -43l-110 -135q123 -101 189.5 -251t66.5 -331q0 -216 -95.5 -387.5t-267 -268.5t-387.5 -97q-270 0 -467 151l-127 -155l-49 45l125 153q-227 214 -227 559zM139 733q0 -312 195 -504 l874 1078q-172 120 -401 120q-197 0 -350 -89.5t-235.5 -247.5t-82.5 -357zM385 184q176 -137 422 -137q198 0 353 87.5t241 244t86 354.5q0 164 -59 301t-166 232z" />
<glyph unicode="&#xd9;" horiz-adv-x="1345" d="M143 682v793h70v-795q0 -315 112 -474t343 -159q238 0 350 158.5t112 476.5v793h70v-793q0 -698 -532 -698q-268 0 -396.5 174.5t-128.5 523.5zM467 1876l47 49l336 -278l-37 -48z" />
<glyph unicode="&#xda;" horiz-adv-x="1345" d="M143 682v793h70v-795q0 -315 112 -474t343 -159q238 0 350 158.5t112 476.5v793h70v-793q0 -698 -532 -698q-268 0 -396.5 174.5t-128.5 523.5zM492 1647l335 278l47 -49l-346 -277z" />
<glyph unicode="&#xdb;" horiz-adv-x="1345" d="M143 682v793h70v-795q0 -315 112 -474t343 -159q238 0 350 158.5t112 476.5v793h70v-793q0 -698 -532 -698q-268 0 -396.5 174.5t-128.5 523.5zM360 1647l314 278l313 -278l-41 -48l-272 236l-273 -236z" />
<glyph unicode="&#xdc;" horiz-adv-x="1345" d="M143 682v793h70v-795q0 -315 112 -474t343 -159q238 0 350 158.5t112 476.5v793h70v-793q0 -698 -532 -698q-268 0 -396.5 174.5t-128.5 523.5zM475 1737q0 32 18.5 51.5t49.5 19.5q29 0 46 -19.5t17 -51.5q0 -30 -17 -48t-46 -18q-31 0 -49.5 18.5t-18.5 47.5zM739 1737 q0 32 18.5 51.5t49.5 19.5q29 0 46 -19.5t17 -51.5q0 -30 -17 -48t-46 -18q-31 0 -49.5 18.5t-18.5 47.5z" />
<glyph unicode="&#xdd;" horiz-adv-x="1077" d="M10 1475h78l451 -879l454 879h74l-494 -951v-524h-69v516zM360 1647l336 278l47 -49l-346 -277z" />
<glyph unicode="&#xde;" horiz-adv-x="1003" d="M158 0v1475h69v-287h193q245 0 388.5 -114t143.5 -322q0 -148 -73.5 -251.5t-195 -151.5t-280.5 -48h-176v-301h-69zM227 365h183q228 0 348.5 103.5t120.5 281.5q0 174 -118.5 274t-326.5 100h-207v-759z" />
<glyph unicode="&#xdf;" horiz-adv-x="1097" d="M137 0v977q0 216 103.5 335.5t289.5 119.5q163 0 271 -100t108 -261q0 -251 -237 -330q199 -39 281.5 -134.5t82.5 -241.5q0 -102 -45.5 -187.5t-139.5 -140.5t-220 -55q-104 0 -191 43t-137 116l51 43q48 -75 124.5 -108t154.5 -33q161 0 246.5 93t85.5 224 q0 163 -121.5 252.5t-331.5 89.5h-96v64h94q82 0 146.5 25.5t103 68t58.5 93.5t20 106q0 79 -28 141t-73.5 98t-97.5 54t-107 18q-111 0 -186 -52t-107 -134t-32 -189v-995h-70z" />
<glyph unicode="&#xe0;" horiz-adv-x="1202" d="M59 516q0 143 65 264t181.5 192.5t257.5 71.5q143 0 253 -65.5t171 -192.5h6v242h70v-1028h-70v248h-6q-147 -264 -426 -264q-138 0 -253.5 70.5t-182 193t-66.5 268.5zM131 514q0 -202 122 -334.5t306 -132.5q188 0 311 132.5t123 334.5q0 201 -123.5 335t-310.5 134 q-183 0 -305.5 -134t-122.5 -335zM397 1430l47 49l336 -279l-37 -47z" />
<glyph unicode="&#xe1;" horiz-adv-x="1202" d="M59 516q0 143 65 264t181.5 192.5t257.5 71.5q143 0 253 -65.5t171 -192.5h6v242h70v-1028h-70v248h-6q-147 -264 -426 -264q-138 0 -253.5 70.5t-182 193t-66.5 268.5zM131 514q0 -202 122 -334.5t306 -132.5q188 0 311 132.5t123 334.5q0 201 -123.5 335t-310.5 134 q-183 0 -305.5 -134t-122.5 -335zM422 1200l336 279l47 -49l-346 -277z" />
<glyph unicode="&#xe2;" horiz-adv-x="1202" d="M59 516q0 143 65 264t181.5 192.5t257.5 71.5q143 0 253 -65.5t171 -192.5h6v242h70v-1028h-70v248h-6q-147 -264 -426 -264q-138 0 -253.5 70.5t-182 193t-66.5 268.5zM131 514q0 -202 122 -334.5t306 -132.5q188 0 311 132.5t123 334.5q0 201 -123.5 335t-310.5 134 q-183 0 -305.5 -134t-122.5 -335zM291 1200l313 279l314 -279l-41 -47l-273 236l-272 -236z" />
<glyph unicode="&#xe3;" horiz-adv-x="1202" d="M59 516q0 143 65 264t181.5 192.5t257.5 71.5q143 0 253 -65.5t171 -192.5h6v242h70v-1028h-70v248h-6q-147 -264 -426 -264q-138 0 -253.5 70.5t-182 193t-66.5 268.5zM131 514q0 -202 122 -334.5t306 -132.5q188 0 311 132.5t123 334.5q0 201 -123.5 335t-310.5 134 q-183 0 -305.5 -134t-122.5 -335zM242 1249q48 79 98.5 124.5t112.5 45.5q39 0 81 -23.5t72 -51t67 -51t68 -23.5q75 0 152 125l47 -31q-96 -160 -207 -160q-33 0 -66 15t-59.5 37t-52 44t-53 37t-53.5 15q-49 0 -82 -32.5t-76 -102.5z" />
<glyph unicode="&#xe4;" horiz-adv-x="1202" d="M59 516q0 143 65 264t181.5 192.5t257.5 71.5q143 0 253 -65.5t171 -192.5h6v242h70v-1028h-70v248h-6q-147 -264 -426 -264q-138 0 -253.5 70.5t-182 193t-66.5 268.5zM131 514q0 -202 122 -334.5t306 -132.5q188 0 311 132.5t123 334.5q0 201 -123.5 335t-310.5 134 q-183 0 -305.5 -134t-122.5 -335zM406 1290q0 32 18 52t49 20q29 0 46.5 -20t17.5 -52q0 -29 -17.5 -47t-46.5 -18q-31 0 -49 18t-18 47zM670 1290q0 32 18 52t49 20q29 0 46.5 -20t17.5 -52q0 -29 -17.5 -47t-46.5 -18q-31 0 -49 18t-18 47z" />
<glyph unicode="&#xe5;" horiz-adv-x="1202" d="M59 516q0 143 65 264t181.5 192.5t257.5 71.5q143 0 253 -65.5t171 -192.5h6v242h70v-1028h-70v248h-6q-147 -264 -426 -264q-138 0 -253.5 70.5t-182 193t-66.5 268.5zM131 514q0 -202 122 -334.5t306 -132.5q188 0 311 132.5t123 334.5q0 201 -123.5 335t-310.5 134 q-183 0 -305.5 -134t-122.5 -335zM393 1341q0 86 61.5 147.5t147.5 61.5t146.5 -61.5t60.5 -147.5t-60.5 -146t-146.5 -60q-87 0 -148 60t-61 146zM459 1341q0 -62 41.5 -104.5t101.5 -42.5t99.5 42.5t39.5 104.5q0 66 -39.5 108t-99.5 42q-61 0 -102 -42.5t-41 -107.5z" />
<glyph unicode="&#xe6;" horiz-adv-x="1730" d="M12 297q0 77 22.5 135t72.5 101.5t134 65.5t201 22q189 0 326 -72v59q0 174 -84 274.5t-256 100.5q-130 0 -210 -51.5t-130 -153.5l-57 31q107 235 401 235q320 0 385 -280q57 130 167 205t255 75q110 0 199 -45t141 -116.5t79.5 -153t27.5 -162.5q0 -14 -5 -49h-839 q0 -204 109 -339.5t294 -135.5q136 0 229 70.5t134 210.5l63 -17q-34 -118 -103.5 -193t-149 -103.5t-175.5 -28.5q-155 0 -266.5 83.5t-167.5 225.5q-55 -136 -165 -222.5t-275 -86.5q-98 0 -177 34t-129.5 107t-50.5 174zM84 301q0 -123 86 -190.5t217 -67.5 q107 0 196.5 56.5t137 140.5t47.5 172v59q-70 45 -165 65.5t-183 20.5q-179 0 -257.5 -64t-78.5 -192zM844 578h772q-13 173 -114.5 289t-266.5 116q-166 0 -270 -109.5t-121 -295.5z" />
<glyph unicode="&#xe7;" horiz-adv-x="911" d="M61 522q0 228 142.5 375t380.5 147q175 0 280 -57v-76q-121 72 -282 72q-212 0 -330.5 -128t-118.5 -331q0 -214 130.5 -347.5t332.5 -133.5q153 0 278 61v-65q-108 -54 -272 -57l-129 -258h-67l124 262q-204 21 -336.5 169.5t-132.5 366.5z" />
<glyph unicode="&#xe8;" horiz-adv-x="1052" d="M61 520q0 226 130.5 375t338.5 149q110 0 199 -45t141 -116.5t79.5 -153t27.5 -162.5q0 -21 -4 -49h-840q0 -204 109.5 -339.5t294.5 -135.5q136 0 228.5 70.5t133.5 210.5l64 -17q-34 -118 -103.5 -193t-149 -103.5t-175.5 -28.5q-142 0 -251 73t-166 195t-57 270z M135 578h772q-13 173 -114.5 289t-266.5 116q-166 0 -270 -109.5t-121 -295.5zM324 1430l47 49l336 -279l-37 -47z" />
<glyph unicode="&#xe9;" horiz-adv-x="1052" d="M61 520q0 226 130.5 375t338.5 149q110 0 199 -45t141 -116.5t79.5 -153t27.5 -162.5q0 -21 -4 -49h-840q0 -204 109.5 -339.5t294.5 -135.5q136 0 228.5 70.5t133.5 210.5l64 -17q-34 -118 -103.5 -193t-149 -103.5t-175.5 -28.5q-142 0 -251 73t-166 195t-57 270z M135 578h772q-13 173 -114.5 289t-266.5 116q-166 0 -270 -109.5t-121 -295.5zM348 1200l336 279l47 -49l-346 -277z" />
<glyph unicode="&#xea;" horiz-adv-x="1052" d="M61 520q0 226 130.5 375t338.5 149q110 0 199 -45t141 -116.5t79.5 -153t27.5 -162.5q0 -21 -4 -49h-840q0 -204 109.5 -339.5t294.5 -135.5q136 0 228.5 70.5t133.5 210.5l64 -17q-34 -118 -103.5 -193t-149 -103.5t-175.5 -28.5q-142 0 -251 73t-166 195t-57 270z M135 578h772q-13 173 -114.5 289t-266.5 116q-166 0 -270 -109.5t-121 -295.5zM215 1200l313 279l314 -279l-41 -47l-273 236l-272 -236z" />
<glyph unicode="&#xeb;" horiz-adv-x="1052" d="M61 520q0 226 130.5 375t338.5 149q110 0 199 -45t141 -116.5t79.5 -153t27.5 -162.5q0 -21 -4 -49h-840q0 -204 109.5 -339.5t294.5 -135.5q136 0 228.5 70.5t133.5 210.5l64 -17q-34 -118 -103.5 -193t-149 -103.5t-175.5 -28.5q-142 0 -251 73t-166 195t-57 270z M135 578h772q-13 173 -114.5 289t-266.5 116q-166 0 -270 -109.5t-121 -295.5zM330 1290q0 32 18 52t49 20q29 0 46.5 -20t17.5 -52q0 -29 -17.5 -47t-46.5 -18q-31 0 -49 18t-18 47zM594 1290q0 32 18.5 52t49.5 20q29 0 46 -19.5t17 -52.5q0 -29 -17 -47t-46 -18 q-31 0 -49.5 18t-18.5 47z" />
<glyph unicode="&#xec;" horiz-adv-x="350" d="M-29 1430l47 49l336 -279l-37 -47zM139 0v1026h70v-1026h-70z" />
<glyph unicode="&#xed;" horiz-adv-x="350" d="M-4 1200l336 279l47 -49l-346 -277zM139 0v1026h70v-1026h-70z" />
<glyph unicode="&#xee;" horiz-adv-x="350" d="M-135 1200l313 279l314 -279l-41 -47l-273 236l-272 -236zM139 0v1026h70v-1026h-70z" />
<glyph unicode="&#xef;" horiz-adv-x="350" d="M-20 1290q0 32 18 52t49 20q29 0 46.5 -20t17.5 -52q0 -29 -17.5 -47t-46.5 -18q-31 0 -49 18t-18 47zM139 0v1026h70v-1026h-70zM244 1290q0 32 18 52t49 20q29 0 46.5 -20t17.5 -52q0 -29 -17.5 -47t-46.5 -18q-31 0 -49 18t-18 47z" />
<glyph unicode="&#xf0;" horiz-adv-x="1128" d="M61 516q0 147 67 268.5t184 190.5t259 69q286 0 422 -258q-49 172 -141 294t-242 216l-88 -137l-53 37l86 133q-13 7 -133 66l31 55q88 -41 135 -70l78 121l53 -35l-78 -120q83 -54 150 -116.5t111 -119.5t76.5 -122t49.5 -117t26.5 -111t12 -98t2.5 -84 q0 -134 -39 -246.5t-107 -188.5t-161.5 -118.5t-200.5 -42.5q-210 0 -355 154t-145 380zM133 514q0 -202 122.5 -336.5t305.5 -134.5q189 0 312.5 134t123.5 337q0 202 -123.5 335.5t-312.5 133.5q-183 0 -305.5 -134t-122.5 -335z" />
<glyph unicode="&#xf1;" horiz-adv-x="1097" d="M139 0v1026h70v-205h4q91 223 367 223q105 0 183.5 -36t125 -102t68.5 -149.5t22 -185.5v-571h-70v608q0 80 -19 146t-58.5 118t-106.5 81.5t-156 29.5q-177 0 -268.5 -104.5t-91.5 -292.5v-586h-70zM188 1249q48 79 98.5 124.5t112.5 45.5q39 0 81 -23.5t72 -51 t67.5 -51t68.5 -23.5q75 0 152 125l47 -31q-96 -160 -207 -160q-41 0 -82.5 23t-70.5 51t-65 51t-67 23q-49 0 -81 -32t-76 -103z" />
<glyph unicode="&#xf2;" horiz-adv-x="1128" d="M59 514q0 226 145 378t357 152q213 0 360.5 -152.5t147.5 -375.5q0 -227 -146.5 -380.5t-361.5 -153.5q-138 0 -253 69.5t-182 192t-67 270.5zM131 514q0 -126 56 -234t155.5 -172.5t218.5 -64.5q123 0 223.5 64t156.5 171.5t56 235.5q0 127 -56 234.5t-156.5 171 t-223.5 63.5q-181 0 -305.5 -137.5t-124.5 -331.5zM360 1430l48 49l335 -279l-36 -47z" />
<glyph unicode="&#xf3;" horiz-adv-x="1128" d="M59 514q0 226 145 378t357 152q213 0 360.5 -152.5t147.5 -375.5q0 -227 -146.5 -380.5t-361.5 -153.5q-138 0 -253 69.5t-182 192t-67 270.5zM131 514q0 -126 56 -234t155.5 -172.5t218.5 -64.5q123 0 223.5 64t156.5 171.5t56 235.5q0 127 -56 234.5t-156.5 171 t-223.5 63.5q-181 0 -305.5 -137.5t-124.5 -331.5zM385 1200l336 279l47 -49l-346 -277z" />
<glyph unicode="&#xf4;" horiz-adv-x="1128" d="M59 514q0 226 145 378t357 152q213 0 360.5 -152.5t147.5 -375.5q0 -227 -146.5 -380.5t-361.5 -153.5q-138 0 -253 69.5t-182 192t-67 270.5zM131 514q0 -126 56 -234t155.5 -172.5t218.5 -64.5q123 0 223.5 64t156.5 171.5t56 235.5q0 127 -56 234.5t-156.5 171 t-223.5 63.5q-181 0 -305.5 -137.5t-124.5 -331.5zM252 1200l313 279l314 -279l-41 -47l-273 236l-272 -236z" />
<glyph unicode="&#xf5;" horiz-adv-x="1128" d="M59 514q0 226 145 378t357 152q213 0 360.5 -152.5t147.5 -375.5q0 -227 -146.5 -380.5t-361.5 -153.5q-138 0 -253 69.5t-182 192t-67 270.5zM131 514q0 -126 56 -234t155.5 -172.5t218.5 -64.5q123 0 223.5 64t156.5 171.5t56 235.5q0 127 -56 234.5t-156.5 171 t-223.5 63.5q-181 0 -305.5 -137.5t-124.5 -331.5zM203 1249q48 79 98.5 124.5t112.5 45.5q39 0 81 -23.5t72 -51t67 -51t68 -23.5q75 0 152 125l47 -31q-96 -160 -207 -160q-33 0 -66 15t-59.5 37t-52 44t-53 37t-53.5 15q-49 0 -82 -32.5t-76 -102.5z" />
<glyph unicode="&#xf6;" horiz-adv-x="1128" d="M59 514q0 226 145 378t357 152q213 0 360.5 -152.5t147.5 -375.5q0 -227 -146.5 -380.5t-361.5 -153.5q-138 0 -253 69.5t-182 192t-67 270.5zM131 514q0 -126 56 -234t155.5 -172.5t218.5 -64.5q123 0 223.5 64t156.5 171.5t56 235.5q0 127 -56 234.5t-156.5 171 t-223.5 63.5q-181 0 -305.5 -137.5t-124.5 -331.5zM367 1290q0 32 18 52t49 20q29 0 46.5 -20t17.5 -52q0 -29 -17.5 -47t-46.5 -18q-31 0 -49 18t-18 47zM631 1290q0 32 18 52t49 20q29 0 46.5 -20t17.5 -52q0 -29 -17.5 -47t-46.5 -18q-31 0 -49 18t-18 47z" />
<glyph unicode="&#xf7;" d="M172 651v64h700v-64h-700zM442 311q0 31 23 56.5t57 25.5t56 -25.5t22 -56.5t-22 -56.5t-56 -25.5t-57 25.5t-23 56.5zM442 1055q0 31 23 56.5t57 25.5t56 -25.5t22 -56.5t-22 -56.5t-56 -25.5t-57 25.5t-23 56.5z" />
<glyph unicode="&#xf8;" horiz-adv-x="1128" d="M59 514q0 226 145 378t357 152q179 0 318 -114l98 114l49 -40l-100 -117q143 -156 143 -371q0 -227 -146.5 -380.5t-361.5 -153.5q-177 0 -309 108l-92 -108l-49 43l94 110q-146 156 -146 379zM131 514q0 -93 31.5 -177.5t87.5 -148.5l586 691q-117 104 -275 104 q-181 0 -305.5 -137.5t-124.5 -331.5zM295 141q115 -98 266 -98q123 0 223.5 64t156.5 171.5t56 235.5q0 187 -114 320z" />
<glyph unicode="&#xf9;" horiz-adv-x="1042" d="M119 428v598h69v-606q0 -163 87.5 -270t246.5 -107q105 0 181.5 51.5t113.5 136t37 189.5v606h70v-590q0 -126 -46.5 -227.5t-140.5 -164t-221 -62.5q-186 0 -291.5 126.5t-105.5 319.5zM317 1430l48 49l335 -279l-36 -47z" />
<glyph unicode="&#xfa;" horiz-adv-x="1042" d="M119 428v598h69v-606q0 -163 87.5 -270t246.5 -107q105 0 181.5 51.5t113.5 136t37 189.5v606h70v-590q0 -126 -46.5 -227.5t-140.5 -164t-221 -62.5q-186 0 -291.5 126.5t-105.5 319.5zM342 1200l336 279l47 -49l-346 -277z" />
<glyph unicode="&#xfb;" horiz-adv-x="1042" d="M119 428v598h69v-606q0 -163 87.5 -270t246.5 -107q105 0 181.5 51.5t113.5 136t37 189.5v606h70v-590q0 -126 -46.5 -227.5t-140.5 -164t-221 -62.5q-186 0 -291.5 126.5t-105.5 319.5zM209 1200l313 279l314 -279l-41 -47l-273 236l-272 -236z" />
<glyph unicode="&#xfc;" horiz-adv-x="1042" d="M119 428v598h69v-606q0 -163 87.5 -270t246.5 -107q105 0 181.5 51.5t113.5 136t37 189.5v606h70v-590q0 -126 -46.5 -227.5t-140.5 -164t-221 -62.5q-186 0 -291.5 126.5t-105.5 319.5zM324 1290q0 32 18 52t49 20q29 0 46.5 -20t17.5 -52q0 -29 -17.5 -47t-46.5 -18 q-31 0 -49 18t-18 47zM588 1290q0 32 18 52t49 20q29 0 46.5 -20t17.5 -52q0 -29 -17.5 -47t-46.5 -18q-31 0 -49 18t-18 47z" />
<glyph unicode="&#xfd;" horiz-adv-x="894" d="M18 1026h80l391 -819l328 819h76l-571 -1436h-74l207 525zM268 1200l336 279l47 -49l-346 -277z" />
<glyph unicode="&#xfe;" horiz-adv-x="1208" d="M145 -410v1823h70v-631h6q67 126 174 194t246 68q142 0 259 -71.5t183 -192.5t66 -264q0 -146 -67 -269t-184.5 -194t-258.5 -71q-140 0 -251.5 70.5t-168.5 193.5h-4v-656h-70zM209 514q0 -202 123.5 -337.5t308.5 -135.5q188 0 312 135t124 338q0 202 -124 335.5 t-312 133.5q-185 0 -308.5 -134t-123.5 -335z" />
<glyph unicode="&#xff;" horiz-adv-x="894" d="M18 1026h80l391 -819l328 819h76l-571 -1436h-74l207 525zM250 1290q0 32 18 52t49 20q29 0 46.5 -20t17.5 -52q0 -29 -17.5 -47t-46.5 -18q-31 0 -49 18t-18 47zM514 1290q0 32 18.5 52t49.5 20q29 0 46 -19.5t17 -52.5q0 -29 -17 -47t-46 -18q-31 0 -49.5 18t-18.5 47z " />
<glyph unicode="&#x152;" horiz-adv-x="2301" d="M66 737q0 161 56 301t154 239.5t237 156.5t300 57q234 0 412 -112t266 -306v402h711v-64h-641v-602h530v-64h-530v-682h641v-63h-711v399q-87 -192 -268 -303.5t-412 -111.5q-215 0 -385.5 97t-265 268.5t-94.5 387.5zM139 733q0 -198 83 -354t236 -244t349 -88 q198 0 353 87.5t241 244t86 354.5q0 199 -85.5 357t-241 247.5t-353.5 89.5q-197 0 -350 -89.5t-235.5 -247.5t-82.5 -357z" />
<glyph unicode="&#x153;" horiz-adv-x="1988" d="M59 514q0 226 145 378t357 152q161 0 286 -89.5t183 -239.5q48 151 163 240t273 89q110 0 199 -45t141 -116.5t79.5 -153t27.5 -162.5q0 -21 -4 -49h-840q0 -204 109.5 -339.5t294.5 -135.5q136 0 228.5 70.5t133.5 210.5l63 -17q-34 -118 -103.5 -193t-149 -103.5 t-175.5 -28.5q-161 0 -276 91.5t-164 245.5q-55 -154 -180.5 -245.5t-288.5 -91.5q-138 0 -253 69.5t-182 192t-67 270.5zM131 514q0 -126 56 -234t155.5 -172.5t218.5 -64.5q123 0 223.5 64t156.5 171.5t56 235.5q0 127 -56 234.5t-156.5 171t-223.5 63.5 q-181 0 -305.5 -137.5t-124.5 -331.5zM1071 578h772q-13 173 -114.5 289t-266.5 116q-166 0 -270 -109.5t-121 -295.5z" />
<glyph unicode="&#x178;" horiz-adv-x="1077" d="M10 1475h78l451 -879l454 879h74l-494 -951v-524h-69v516zM342 1737q0 32 18.5 51.5t49.5 19.5q29 0 46 -19.5t17 -51.5q0 -30 -17 -48t-46 -18q-31 0 -49.5 18.5t-18.5 47.5zM606 1737q0 32 18.5 51.5t49.5 19.5q29 0 46 -19.5t17 -51.5q0 -30 -17 -48t-46 -18 q-31 0 -49.5 18.5t-18.5 47.5z" />
<glyph unicode="&#x2c6;" horiz-adv-x="1234" d="M305 1200l313 279l314 -279l-41 -47l-273 236l-272 -236z" />
<glyph unicode="&#x2dc;" horiz-adv-x="1234" d="M256 1249q48 79 98.5 124.5t112.5 45.5q39 0 81 -23.5t72 -51t67.5 -51t68.5 -23.5q74 0 151 125l47 -31q-96 -160 -206 -160q-41 0 -82.5 23t-70.5 51t-65 51t-67 23q-49 0 -82 -32.5t-76 -102.5z" />
<glyph unicode="&#x2000;" horiz-adv-x="998" />
<glyph unicode="&#x2001;" horiz-adv-x="1997" />
<glyph unicode="&#x2002;" horiz-adv-x="998" />
<glyph unicode="&#x2003;" horiz-adv-x="1997" />
<glyph unicode="&#x2004;" horiz-adv-x="665" />
<glyph unicode="&#x2005;" horiz-adv-x="499" />
<glyph unicode="&#x2006;" horiz-adv-x="332" />
<glyph unicode="&#x2007;" horiz-adv-x="332" />
<glyph unicode="&#x2008;" horiz-adv-x="249" />
<glyph unicode="&#x2009;" horiz-adv-x="399" />
<glyph unicode="&#x200a;" horiz-adv-x="110" />
<glyph unicode="&#x2010;" horiz-adv-x="655" d="M76 520v64h502v-64h-502z" />
<glyph unicode="&#x2011;" horiz-adv-x="655" d="M76 520v64h502v-64h-502z" />
<glyph unicode="&#x2012;" horiz-adv-x="655" d="M76 520v64h502v-64h-502z" />
<glyph unicode="&#x2013;" horiz-adv-x="1024" d="M76 520v64h872v-64h-872z" />
<glyph unicode="&#x2014;" horiz-adv-x="2048" d="M76 520v64h1896v-64h-1896z" />
<glyph unicode="&#x2018;" horiz-adv-x="501" d="M180 1024l107 451h47l-62 -451h-92z" />
<glyph unicode="&#x2019;" horiz-adv-x="501" d="M170 1024l61 451h91l-107 -451h-45z" />
<glyph unicode="&#x201a;" horiz-adv-x="501" d="M174 -164l62 451h92l-107 -451h-47z" />
<glyph unicode="&#x201c;" horiz-adv-x="759" d="M180 1024l107 451h47l-62 -451h-92zM436 1024l107 451h47l-62 -451h-92z" />
<glyph unicode="&#x201d;" horiz-adv-x="759" d="M170 1024l61 451h91l-107 -451h-45zM426 1024l61 451h93l-107 -451h-47z" />
<glyph unicode="&#x201e;" horiz-adv-x="759" d="M174 -164l62 451h92l-107 -451h-47zM432 -164l62 451h90l-107 -451h-45z" />
<glyph unicode="&#x2022;" horiz-adv-x="667" d="M209 532q0 58 36 98t89 40q55 0 92 -40t37 -98q0 -55 -37 -94t-92 -39q-53 0 -89 39t-36 94z" />
<glyph unicode="&#x2026;" horiz-adv-x="1345" d="M242 49q0 32 18 52t49 20q29 0 46.5 -20t17.5 -52q0 -29 -17.5 -47t-46.5 -18q-31 0 -49 18t-18 47zM610 49q0 32 18.5 52t49.5 20q29 0 46 -19.5t17 -52.5q0 -29 -17 -47t-46 -18q-31 0 -49.5 18t-18.5 47zM979 49q0 32 18.5 52t49.5 20q29 0 46 -19.5t17 -52.5 q0 -29 -17 -47t-46 -18q-31 0 -49.5 18t-18.5 47z" />
<glyph unicode="&#x202f;" horiz-adv-x="399" />
<glyph unicode="&#x2039;" horiz-adv-x="714" d="M190 559l273 408l47 -37l-229 -371l229 -373l-47 -36z" />
<glyph unicode="&#x203a;" horiz-adv-x="714" d="M201 186l235 373l-235 371l53 37l272 -408l-272 -409z" />
<glyph unicode="&#x205f;" horiz-adv-x="499" />
<glyph unicode="&#x20ac;" horiz-adv-x="1173" d="M33 522v64h180q-10 78 -10 145q0 87 10 148h-180v63h192q27 119 82 218.5t134.5 174t187 116.5t231.5 42q149 0 279 -70v-80q-133 87 -310 87q-202 0 -342 -136.5t-192 -351.5h596v-63h-608q-11 -86 -11 -146q0 -61 11 -147h608v-64h-594q34 -138 103.5 -243.5 t180 -169.5t246.5 -64q106 0 177 17t133 53v-74q-129 -59 -281 -59q-249 0 -414 150t-217 390h-192z" />
<glyph unicode="&#x2122;" horiz-adv-x="1380" d="M10 1413v62h529v-62h-232v-676h-67v676h-230zM512 737l84 752l330 -582l331 582l82 -752h-67l-62 563l-286 -505l-281 505l-63 -563h-68z" />
<glyph unicode="&#x25fc;" horiz-adv-x="1024" d="M0 0v1024h1024v-1024h-1024z" />
</font>
</defs>
</svg>
